<svg xmlns="http://www.w3.org/2000/svg" xmlns:xlink="http://www.w3.org/1999/xlink" xmlns:lucid="lucid" width="2989.09" height="1007.33"><g transform="translate(-140 -232.66666666666666)" lucid:page-tab-id="0_0"><path d="M0 0h3307.1v1688.2H0z" fill="#282c33"/><path d="M260 844.1c0 27.6-22.4 50-50 50s-50-22.4-50-50c0-27.62 22.4-50 50-50s50 22.38 50 50z" fill="#99d5ca"/><use xlink:href="#a" transform="matrix(1,0,0,1,165,799.0944881889765) translate(34.55555555555556 50.37916666666666)"/><path d="M560 550c0 27.6-22.4 50-50 50s-50-22.4-50-50 22.4-50 50-50 50 22.4 50 50z" fill="#99d5ca"/><use xlink:href="#b" transform="matrix(1,0,0,1,465,505) translate(34.55555555555556 50.37916666666666)"/><path d="M560 1170c0 27.6-22.4 50-50 50s-50-22.4-50-50 22.4-50 50-50 50 22.4 50 50z" fill="#99d5ca"/><use xlink:href="#c" transform="matrix(1,0,0,1,465,1125) translate(33.72870370370371 50.37916666666666)"/><path d="M1040 1170c0 27.6-22.4 50-50 50s-50-22.4-50-50 22.4-50 50-50 50 22.4 50 50z" fill="#99d5ca"/><use xlink:href="#d" transform="matrix(1,0,0,1,945,1125) translate(35.46944444444445 50.37916666666666)"/><path d="M1040 844.1c0 27.6-22.4 50-50 50s-50-22.4-50-50c0-27.62 22.4-50 50-50s50 22.38 50 50z" fill="#99d5ca"/><use xlink:href="#e" transform="matrix(1,0,0,1,945,799.0944881889765) translate(34.55555555555556 50.37916666666666)"/><path d="M1040 410c0 27.6-22.4 50-50 50s-50-22.4-50-50 22.4-50 50-50 50 22.4 50 50z" fill="#99d5ca"/><use xlink:href="#f" transform="matrix(1,0,0,1,945,365) translate(33.72870370370371 50.37916666666666)"/><path d="M248.44 809.16L457.42 600.2" stroke="#ff8f80" stroke-width="4" fill="none"/><path d="M249.9 810.54l-1.55 1.54-2.48-2.82-.18-.17 1.36-1.4z" fill="#ff8f80"/><path d="M468.92 588.7l-6.8 13.35-6.57-6.55z" stroke="#ff8f80" stroke-width="4" fill="#ff8f80"/><path d="M245.18 882.32l215.6 234.2" stroke="#ff8f80" stroke-width="4" fill="none"/><path d="M246.7 881l-2.95 2.7-1.42-1.53 2.5-2.2.46-.5z" fill="#ff8f80"/><path d="M471.8 1128.5l-13.1-7.37 6.84-6.28z" stroke="#ff8f80" stroke-width="4" fill="#ff8f80"/><path d="M390 410.07c0-4.42 3.58-8 8-8h224c4.42 0 8 3.58 8 8v79.86c0 4.42-3.58 8-8 8H398c-4.42 0-8-3.58-8-8z" stroke="#000" stroke-opacity="0" stroke-width="4" fill="#fff" fill-opacity="0"/><use xlink:href="#g" transform="matrix(1,0,0,1,395,407.06666666666666) translate(63.370679012345704 28.622222222222213)"/><use xlink:href="#h" transform="matrix(1,0,0,1,395,407.06666666666666) translate(81.2098765432099 71.55555555555554)"/><use xlink:href="#i" transform="matrix(1,0,0,1,395,407.06666666666666) translate(124.93827160493828 71.55555555555554)"/><path d="M561.88 549.3l356.78-131.44" stroke="#ff8f80" stroke-width="4" fill="none"/><path d="M562.62 551.17l-2.73 1 .1-2.17-.07-2.1 1.3-.5z" fill="#ff8f80"/><path d="M933.93 412.24l-11.8 9.28-3.2-8.7z" stroke="#ff8f80" stroke-width="4" fill="#ff8f80"/><path d="M561.58 551.22l360.44 278.96" stroke="#ff8f80" stroke-width="4" fill="none"/><path d="M562.85 549.67l-2.45 3.17-.52-.4.12-2.44-.1-2.6z" fill="#ff8f80"/><path d="M934.88 840.13l-14.12-5.06 5.68-7.33z" stroke="#ff8f80" stroke-width="4" fill="#ff8f80"/><path d="M870 260.67c0-4.42 3.58-8 8-8h224c4.42 0 8 3.58 8 8v79.86c0 4.42-3.58 8-8 8H878c-4.42 0-8-3.58-8-8z" stroke="#000" stroke-opacity="0" stroke-width="4" fill="#fff" fill-opacity="0"/><use xlink:href="#g" transform="matrix(1,0,0,1,875,257.66666666666663) translate(63.370679012345704 28.622222222222213)"/><use xlink:href="#h" transform="matrix(1,0,0,1,875,257.66666666666663) translate(81.2098765432099 71.55555555555554)"/><use xlink:href="#j" transform="matrix(1,0,0,1,875,257.66666666666663) translate(124.93827160493828 71.55555555555554)"/><path d="M870 706.23c0-4.42 3.58-8 8-8h224c4.42 0 8 3.58 8 8v79.86c0 4.4-3.58 8-8 8H878c-4.42 0-8-3.6-8-8z" stroke="#000" stroke-opacity="0" stroke-width="4" fill="#fff" fill-opacity="0"/><use xlink:href="#g" transform="matrix(1,0,0,1,875,703.2278215223098) translate(63.370679012345704 28.622222222222213)"/><use xlink:href="#h" transform="matrix(1,0,0,1,875,703.2278215223098) translate(81.2098765432099 71.55555555555554)"/><use xlink:href="#j" transform="matrix(1,0,0,1,875,703.2278215223098) translate(124.93827160493828 71.55555555555554)"/><path d="M562 1170h355.26" stroke="#ff8f80" stroke-width="4" fill="none"/><path d="M562.05 1172h-2.15l.1-2-.07-2h2.12z" fill="#ff8f80"/><path d="M933.53 1170l-14.27 4.64v-9.28z" stroke="#ff8f80" stroke-width="4" fill="#ff8f80"/><path d="M870 1032.13c0-4.4 3.58-8 8-8h224c4.42 0 8 3.6 8 8V1112c0 4.42-3.58 8-8 8H878c-4.42 0-8-3.58-8-8z" stroke="#000" stroke-opacity="0" stroke-width="4" fill="#fff" fill-opacity="0"/><use xlink:href="#k" transform="matrix(1,0,0,1,875,1029.1333333333334) translate(61.43271604938275 28.622222222222213)"/><use xlink:href="#l" transform="matrix(1,0,0,1,875,1029.1333333333334) translate(78.37746913580249 71.55555555555554)"/><use xlink:href="#m" transform="matrix(1,0,0,1,875,1029.1333333333334) translate(125.8824074074074 71.55555555555554)"/><path d="M1041.94 410.5l490.6 126.55" stroke="#ff8f80" stroke-width="4" fill="none"/><path d="M1042.5 408.58l-1 3.87-1.6-.4.1-2.05-.07-2.08z" fill="#ff8f80"/><path d="M1548.28 541.1l-14.97.94 2.32-8.98z" stroke="#ff8f80" stroke-width="4" fill="#ff8f80"/><path d="M1041.92 1169.43l490.83-145.7" stroke="#ff8f80" stroke-width="4" fill="none"/><path d="M1042.54 1171.33l-2.65.8.1-2.13-.07-2.06 1.47-.44z" fill="#ff8f80"/><path d="M1548.34 1019.1l-12.36 8.52-2.63-8.9z" stroke="#ff8f80" stroke-width="4" fill="#ff8f80"/><path d="M1700 336.53c0-4.4 3.58-8 8-8h224c4.42 0 8 3.6 8 8v4c0 4.42-3.58 8-8 8h-224c-4.42 0-8-3.58-8-8z" stroke="#000" stroke-opacity="0" stroke-width="4" fill="#fff" fill-opacity="0"/><use xlink:href="#n" transform="matrix(1,0,0,1,1705,333.5333333333333) translate(33.35925925925936 35.7333333333333)"/><use xlink:href="#o" transform="matrix(1,0,0,1,1705,333.5333333333333) translate(144.65370370370368 35.7333333333333)"/><use xlink:href="#p" transform="matrix(1,0,0,1,1705,333.5333333333333) translate(171.82592592592584 35.7333333333333)"/><path d="M2167.47 780c0 180.75-155.4 327.27-347.1 327.27-191.7 0-347.12-146.52-347.12-327.27 0-180.75 155.4-327.27 347.1-327.27 191.7 0 347.12 146.52 347.12 327.27z" stroke="#ff7070" stroke-opacity=".2" stroke-width="7" fill-opacity="0"/><path d="M1865.45 460.9c0 22.6-18.3 40.92-40.9 40.92-22.6 0-40.9-18.32-40.9-40.9 0-22.6 18.3-40.92 40.9-40.92 22.6 0 40.9 18.32 40.9 40.9z" fill="#fff"/><use xlink:href="#q" transform="matrix(1,0,0,1,1788.6363636363635,425) translate(27.296296296296298 43.06666666666666)"/><path d="M2094.55 542.73c0 22.6-18.32 40.9-40.9 40.9-22.6 0-40.92-18.3-40.92-40.9 0-22.6 18.3-40.9 40.9-40.9 22.6 0 40.92 18.3 40.92 40.9z" fill="#fff"/><use xlink:href="#r" transform="matrix(1,0,0,1,2017.7272727272725,506.81818181818187) translate(27.296296296296298 43.06666666666666)"/><path d="M1636.36 542.73c0 22.6-18.3 40.9-40.9 40.9-22.6 0-40.9-18.3-40.9-40.9 0-22.6 18.3-40.9 40.9-40.9 22.6 0 40.9 18.3 40.9 40.9z" fill="#99d5ca"/><use xlink:href="#s" transform="matrix(1,0,0,1,1559.5454545454545,506.81818181818187) translate(27.296296296296298 43.06666666666666)"/><path d="M2209.1 780c0 22.6-18.32 40.9-40.92 40.9s-40.9-18.3-40.9-40.9c0-22.6 18.3-40.9 40.9-40.9 22.6 0 40.9 18.3 40.9 40.9z" fill="#fff"/><use xlink:href="#t" transform="matrix(1,0,0,1,2132.272727272727,744.090909090909) translate(27.296296296296298 43.06666666666666)"/><path d="M1521.82 780c0 22.6-18.32 40.9-40.9 40.9-22.6 0-40.92-18.3-40.92-40.9 0-22.6 18.32-40.9 40.9-40.9 22.6 0 40.92 18.3 40.92 40.9z" fill="#fff"/><use xlink:href="#u" transform="matrix(1,0,0,1,1445,744.090909090909) translate(27.296296296296298 43.06666666666666)"/><path d="M2094.55 1017.27c0 22.6-18.32 40.9-40.9 40.9-22.6 0-40.92-18.3-40.92-40.9 0-22.6 18.3-40.9 40.9-40.9 22.6 0 40.92 18.3 40.92 40.9z" fill="#fff"/><use xlink:href="#v" transform="matrix(1,0,0,1,2017.7272727272725,981.3636363636364) translate(27.296296296296298 43.06666666666666)"/><path d="M1636.36 1017.27c0 22.6-18.3 40.9-40.9 40.9-22.6 0-40.9-18.3-40.9-40.9 0-22.6 18.3-40.9 40.9-40.9 22.6 0 40.9 18.3 40.9 40.9z" fill="#99d5ca"/><use xlink:href="#w" transform="matrix(1,0,0,1,1559.5454545454545,981.3636363636364) translate(27.296296296296298 43.06666666666666)"/><path d="M1865.45 1099.1c0 22.58-18.3 40.9-40.9 40.9-22.6 0-40.9-18.32-40.9-40.9 0-22.6 18.3-40.92 40.9-40.92 22.6 0 40.9 18.32 40.9 40.9z" fill="#fff"/><use xlink:href="#x" transform="matrix(1,0,0,1,1788.6363636363635,1063.181818181818) translate(27.296296296296298 43.06666666666666)"/><path d="M1500 588c0-4.42 3.58-8 8-8h224c4.42 0 8 3.58 8 8v79.87c0 4.4-3.58 8-8 8h-224c-4.42 0-8-3.6-8-8z" stroke="#000" stroke-opacity="0" stroke-width="4" fill="#fff" fill-opacity="0"/><use xlink:href="#g" transform="matrix(1,0,0,1,1505,585) translate(63.370679012345704 28.622222222222213)"/><use xlink:href="#h" transform="matrix(1,0,0,1,1505,585) translate(80.26574074074077 71.55555555555554)"/><use xlink:href="#y" transform="matrix(1,0,0,1,1505,585) translate(123.99413580246915 71.55555555555554)"/><path d="M1540 908c0-4.42 3.58-8 8-8h224c4.42 0 8 3.58 8 8v79.87c0 4.4-3.58 8-8 8h-224c-4.42 0-8-3.6-8-8z" stroke="#000" stroke-opacity="0" stroke-width="4" fill="#fff" fill-opacity="0"/><use xlink:href="#k" transform="matrix(1,0,0,1,1545,905) translate(61.43271604938275 28.622222222222213)"/><use xlink:href="#l" transform="matrix(1,0,0,1,1545,905) translate(80.36512345679014 71.55555555555554)"/><use xlink:href="#z" transform="matrix(1,0,0,1,1545,905) translate(127.87006172839506 71.55555555555554)"/><path d="M1460 728c0-4.42 3.58-8 8-8h224c4.42 0 8 3.58 8 8v79.87c0 4.4-3.58 8-8 8h-224c-4.42 0-8-3.6-8-8z" stroke="#000" stroke-opacity="0" stroke-width="4" fill="#fff" fill-opacity="0"/><use xlink:href="#A" transform="matrix(1,0,0,1,1465,725) translate(63.370679012345704 28.622222222222213)"/><use xlink:href="#B" transform="matrix(1,0,0,1,1465,725) translate(68.29012345679014 71.55555555555554)"/><use xlink:href="#C" transform="matrix(1,0,0,1,1465,725) translate(112.0185185185185 71.55555555555554)"/><path d="M1700 505.93c0-4.4 3.58-8 8-8h224c4.42 0 8 3.6 8 8v79.87c0 4.42-3.58 8-8 8h-224c-4.42 0-8-3.58-8-8z" stroke="#000" stroke-opacity="0" stroke-width="4" fill="#fff" fill-opacity="0"/><use xlink:href="#A" transform="matrix(1,0,0,1,1705,502.9333333333333) translate(63.370679012345704 28.622222222222213)"/><use xlink:href="#B" transform="matrix(1,0,0,1,1705,502.9333333333333) translate(68.29012345679014 71.55555555555554)"/><use xlink:href="#C" transform="matrix(1,0,0,1,1705,502.9333333333333) translate(112.0185185185185 71.55555555555554)"/><path d="M1700 988c0-4.42 3.58-8 8-8h224c4.42 0 8 3.58 8 8v79.87c0 4.4-3.58 8-8 8h-224c-4.42 0-8-3.6-8-8z" stroke="#000" stroke-opacity="0" stroke-width="4" fill="#fff" fill-opacity="0"/><use xlink:href="#A" transform="matrix(1,0,0,1,1705,985) translate(63.370679012345704 28.622222222222213)"/><use xlink:href="#B" transform="matrix(1,0,0,1,1705,985) translate(68.29012345679014 71.55555555555554)"/><use xlink:href="#C" transform="matrix(1,0,0,1,1705,985) translate(112.0185185185185 71.55555555555554)"/><path d="M1900 902.1c0-4.42 3.58-8 8-8h224c4.42 0 8 3.58 8 8v79.86c0 4.42-3.58 8-8 8h-224c-4.42 0-8-3.58-8-8z" stroke="#000" stroke-opacity="0" stroke-width="4" fill="#fff" fill-opacity="0"/><use xlink:href="#A" transform="matrix(1,0,0,1,1905,899.0944881889765) translate(63.370679012345704 28.622222222222213)"/><use xlink:href="#B" transform="matrix(1,0,0,1,1905,899.0944881889765) translate(68.29012345679014 71.55555555555554)"/><use xlink:href="#C" transform="matrix(1,0,0,1,1905,899.0944881889765) translate(112.0185185185185 71.55555555555554)"/><path d="M1940 748c0-4.42 3.58-8 8-8h224c4.42 0 8 3.58 8 8v79.87c0 4.4-3.58 8-8 8h-224c-4.42 0-8-3.6-8-8z" stroke="#000" stroke-opacity="0" stroke-width="4" fill="#fff" fill-opacity="0"/><use xlink:href="#A" transform="matrix(1,0,0,1,1945,745) translate(63.370679012345704 28.622222222222213)"/><use xlink:href="#B" transform="matrix(1,0,0,1,1945,745) translate(68.29012345679014 71.55555555555554)"/><use xlink:href="#C" transform="matrix(1,0,0,1,1945,745) translate(112.0185185185185 71.55555555555554)"/><path d="M1900 593.9c0-4.4 3.58-8 8-8h224c4.42 0 8 3.6 8 8v79.87c0 4.42-3.58 8-8 8h-224c-4.42 0-8-3.58-8-8z" stroke="#000" stroke-opacity="0" stroke-width="4" fill="#fff" fill-opacity="0"/><use xlink:href="#A" transform="matrix(1,0,0,1,1905,590.9055118110235) translate(63.370679012345704 28.622222222222213)"/><use xlink:href="#B" transform="matrix(1,0,0,1,1905,590.9055118110235) translate(68.29012345679014 71.55555555555554)"/><use xlink:href="#C" transform="matrix(1,0,0,1,1905,590.9055118110235) translate(112.0185185185185 71.55555555555554)"/><path d="M2600 328c0-4.42 3.58-8 8-8h224c4.42 0 8 3.58 8 8v4c0 4.42-3.58 8-8 8h-224c-4.42 0-8-3.58-8-8z" stroke="#000" stroke-opacity="0" stroke-width="4" fill="#fff" fill-opacity="0"/><use xlink:href="#n" transform="matrix(1,0,0,1,2605,325) translate(33.35925925925936 35.7333333333333)"/><use xlink:href="#o" transform="matrix(1,0,0,1,2605,325) translate(144.65370370370368 35.7333333333333)"/><use xlink:href="#D" transform="matrix(1,0,0,1,2605,325) translate(171.82592592592584 35.7333333333333)"/><path d="M3067.47 771.47c0 180.74-155.4 327.27-347.1 327.27-191.7 0-347.12-146.53-347.12-327.27 0-180.75 155.4-327.28 347.1-327.28 191.7 0 347.12 146.52 347.12 327.27z" stroke="#ff7070" stroke-opacity=".2" stroke-width="7" fill-opacity="0"/><path d="M2765.45 452.38c0 22.6-18.3 40.9-40.9 40.9-22.6 0-40.9-18.3-40.9-40.9 0-22.6 18.3-40.9 40.9-40.9 22.6 0 40.9 18.3 40.9 40.9z" fill="#fff"/><g><use xlink:href="#q" transform="matrix(1,0,0,1,2688.6363636363635,416.4666666666667) translate(27.296296296296298 43.06666666666666)"/></g><path d="M2994.55 534.2c0 22.6-18.32 40.9-40.9 40.9-22.6 0-40.92-18.3-40.92-40.9 0-22.6 18.3-40.92 40.9-40.92 22.6 0 40.92 18.32 40.92 40.9z" fill="#fff"/><g><use xlink:href="#r" transform="matrix(1,0,0,1,2917.7272727272725,498.28484848484857) translate(27.296296296296298 43.06666666666666)"/></g><path d="M2536.36 534.2c0 22.6-18.3 40.9-40.9 40.9-22.6 0-40.9-18.3-40.9-40.9 0-22.6 18.3-40.92 40.9-40.92 22.6 0 40.9 18.32 40.9 40.9z" fill="#99d5ca"/><g><use xlink:href="#s" transform="matrix(1,0,0,1,2459.5454545454545,498.28484848484857) translate(27.296296296296298 43.06666666666666)"/></g><path d="M3109.1 771.47c0 22.6-18.32 40.9-40.92 40.9s-40.9-18.3-40.9-40.9c0-22.6 18.3-40.9 40.9-40.9 22.6 0 40.9 18.3 40.9 40.9z" fill="#fff"/><g><use xlink:href="#t" transform="matrix(1,0,0,1,3032.272727272727,735.5575757575758) translate(27.296296296296298 43.06666666666666)"/></g><path d="M2421.82 771.47c0 22.6-18.32 40.9-40.9 40.9-22.6 0-40.92-18.3-40.92-40.9 0-22.6 18.32-40.9 40.9-40.9 22.6 0 40.92 18.3 40.92 40.9z" fill="#fff"/><g><use xlink:href="#u" transform="matrix(1,0,0,1,2345,735.5575757575758) translate(27.296296296296298 43.06666666666666)"/></g><path d="M2994.55 1008.74c0 22.6-18.32 40.9-40.9 40.9-22.6 0-40.92-18.3-40.92-40.9 0-22.6 18.3-40.9 40.9-40.9 22.6 0 40.92 18.3 40.92 40.9z" fill="#fff"/><g><use xlink:href="#v" transform="matrix(1,0,0,1,2917.7272727272725,972.8303030303031) translate(27.296296296296298 43.06666666666666)"/></g><path d="M2536.36 1008.74c0 22.6-18.3 40.9-40.9 40.9-22.6 0-40.9-18.3-40.9-40.9 0-22.6 18.3-40.9 40.9-40.9 22.6 0 40.9 18.3 40.9 40.9z" fill="#99d5ca"/><g><use xlink:href="#w" transform="matrix(1,0,0,1,2459.5454545454545,972.8303030303031) translate(27.296296296296298 43.06666666666666)"/></g><path d="M2765.45 1090.56c0 22.6-18.3 40.9-40.9 40.9-22.6 0-40.9-18.3-40.9-40.9 0-22.6 18.3-40.9 40.9-40.9 22.6 0 40.9 18.3 40.9 40.9z" fill="#fff"/><g><use xlink:href="#x" transform="matrix(1,0,0,1,2688.6363636363635,1054.6484848484847) translate(27.296296296296298 43.06666666666666)"/></g><path d="M2600 685.07c0-4.42 3.58-8 8-8h224c4.42 0 8 3.58 8 8v122.8c0 4.4-3.58 8-8 8h-224c-4.42 0-8-3.6-8-8z" stroke="#000" stroke-opacity="0" stroke-width="4" fill="#fff" fill-opacity="0"/><g><use xlink:href="#A" transform="matrix(1,0,0,1,2605,682.0666666666667) translate(63.370679012345704 28.622222222222213)"/><use xlink:href="#B" transform="matrix(1,0,0,1,2605,682.0666666666667) translate(46.52530864197534 71.55555555555554)"/><use xlink:href="#E" transform="matrix(1,0,0,1,2605,682.0666666666667) translate(90.2537037037037 71.55555555555554)"/><use xlink:href="#F" transform="matrix(1,0,0,1,2605,682.0666666666667) translate(33.6055555555556 114.48888888888885)"/><use xlink:href="#C" transform="matrix(1,0,0,1,2605,682.0666666666667) translate(146.70308641975305 114.48888888888885)"/></g><path d="M2096.54 542.68l335.27-7.95" stroke="#ff8f80" stroke-width="4" fill="none"/><path d="M2096.64 544.68l-2.22.05.13-2-.1-2 2.1-.05z" fill="#ff8f80"/><path d="M2448.08 534.35l-14.16 4.97-.22-9.27z" stroke="#ff8f80" stroke-width="4" fill="#ff8f80"/><path d="M2452.55 1008.8l-335.27 7.93" stroke="#ff8f80" stroke-width="4" fill="none"/><path d="M2454.55 1008.74l.1 2-2.1.05-.1-4 2.22-.06z" fill="#ff8f80"/><path d="M2101.02 1017.12l14.15-4.97.22 9.27z" stroke="#ff8f80" stroke-width="4" fill="#ff8f80"/><defs><path fill="#5d646f" d="M205 0l-28-72H64L36 0H1l101-248h38L239 0h-34zm-38-99l-47-123c-12 45-31 82-46 123h93" id="G"/><use transform="matrix(0.08703703703703701,0,0,0.08703703703703701,0,0)" xlink:href="#G" id="a"/><path fill="#5d646f" d="M160-131c35 5 61 23 61 61C221 17 115-2 30 0v-248c76 3 177-17 177 60 0 33-19 50-47 57zm-97-11c50-1 110 9 110-42 0-47-63-36-110-37v79zm0 115c55-2 124 14 124-45 0-56-70-42-124-44v89" id="H"/><use transform="matrix(0.08703703703703701,0,0,0.08703703703703701,0,0)" xlink:href="#H" id="b"/><path fill="#5d646f" d="M212-179c-10-28-35-45-73-45-59 0-87 40-87 99 0 60 29 101 89 101 43 0 62-24 78-52l27 14C228-24 195 4 139 4 59 4 22-46 18-125c-6-104 99-153 187-111 19 9 31 26 39 46" id="I"/><use transform="matrix(0.08703703703703701,0,0,0.08703703703703701,0,0)" xlink:href="#I" id="c"/><path fill="#5d646f" d="M63-220v92h138v28H63V0H30v-248h175v28H63" id="J"/><use transform="matrix(0.08703703703703701,0,0,0.08703703703703701,0,0)" xlink:href="#J" id="d"/><path fill="#5d646f" d="M30 0v-248h187v28H63v79h144v27H63v87h162V0H30" id="K"/><use transform="matrix(0.08703703703703701,0,0,0.08703703703703701,0,0)" xlink:href="#K" id="e"/><path fill="#5d646f" d="M30-248c118-7 216 8 213 122C240-48 200 0 122 0H30v-248zM63-27c89 8 146-16 146-99s-60-101-146-95v194" id="L"/><use transform="matrix(0.08703703703703701,0,0,0.08703703703703701,0,0)" xlink:href="#L" id="f"/><path fill="#ff7070" d="M212-179c-10-28-35-45-73-45-59 0-87 40-87 99 0 60 29 101 89 101 43 0 62-24 78-52l27 14C228-24 195 4 139 4 59 4 22-46 18-125c-6-104 99-153 187-111 19 9 31 26 39 46" id="M"/><path fill="#ff7070" d="M141-36C126-15 110 5 73 4 37 3 15-17 15-53c-1-64 63-63 125-63 3-35-9-54-41-54-24 1-41 7-42 31l-33-3c5-37 33-52 76-52 45 0 72 20 72 64v82c-1 20 7 32 28 27v20c-31 9-61-2-59-35zM48-53c0 20 12 33 32 33 41-3 63-29 60-74-43 2-92-5-92 41" id="N"/><path fill="#ff7070" d="M96-169c-40 0-48 33-48 73s9 75 48 75c24 0 41-14 43-38l32 2c-6 37-31 61-74 61-59 0-76-41-82-99-10-93 101-131 147-64 4 7 5 14 7 22l-32 3c-4-21-16-35-41-35" id="O"/><path fill="#ff7070" d="M106-169C34-169 62-67 57 0H25v-261h32l-1 103c12-21 28-36 61-36 89 0 53 116 60 194h-32v-121c2-32-8-49-39-48" id="P"/><path fill="#ff7070" d="M100-194c63 0 86 42 84 106H49c0 40 14 67 53 68 26 1 43-12 49-29l28 8c-11 28-37 45-77 45C44 4 14-33 15-96c1-61 26-98 85-98zm52 81c6-60-76-77-97-28-3 7-6 17-6 28h103" id="Q"/><g id="g"><use transform="matrix(0.09938271604938267,0,0,0.09938271604938267,0,0)" xlink:href="#M"/><use transform="matrix(0.09938271604938267,0,0,0.09938271604938267,25.740123456790112,0)" xlink:href="#N"/><use transform="matrix(0.09938271604938267,0,0,0.09938271604938267,45.616666666666646,0)" xlink:href="#O"/><use transform="matrix(0.09938271604938267,0,0,0.09938271604938267,63.50555555555553,0)" xlink:href="#P"/><use transform="matrix(0.09938271604938267,0,0,0.09938271604938267,83.38209876543206,0)" xlink:href="#Q"/></g><path fill="#ff7070" d="M205 0l-28-72H64L36 0H1l101-248h38L239 0h-34zm-38-99l-47-123c-12 45-31 82-46 123h93" id="R"/><path fill="#ff7070" d="M33-154v-36h34v36H33zM33 0v-36h34V0H33" id="S"/><g id="h"><use transform="matrix(0.09938271604938267,0,0,0.09938271604938267,0,0)" xlink:href="#R"/><use transform="matrix(0.09938271604938267,0,0,0.09938271604938267,23.85185185185184,0)" xlink:href="#S"/></g><use transform="matrix(0.09938271604938267,0,0,0.09938271604938267,0,0)" xlink:href="#R" id="i"/><path fill="#ff7070" d="M160-131c35 5 61 23 61 61C221 17 115-2 30 0v-248c76 3 177-17 177 60 0 33-19 50-47 57zm-97-11c50-1 110 9 110-42 0-47-63-36-110-37v79zm0 115c55-2 124 14 124-45 0-56-70-42-124-44v89" id="T"/><use transform="matrix(0.09938271604938267,0,0,0.09938271604938267,0,0)" xlink:href="#T" id="j"/><path fill="#ff7070" d="M67-125c0 53 21 87 73 88 37 1 54-22 65-47l45 17C233-25 199 4 140 4 58 4 20-42 15-125 8-235 124-281 211-232c18 10 29 29 36 50l-46 12c-8-25-30-41-62-41-52 0-71 34-72 86" id="U"/><path fill="#ff7070" d="M133-34C117-15 103 5 69 4 32 3 11-16 11-54c-1-60 55-63 116-61 1-26-3-47-28-47-18 1-26 9-28 27l-52-2c7-38 36-58 82-57s74 22 75 68l1 82c-1 14 12 18 25 15v27c-30 8-71 5-69-32zm-48 3c29 0 43-24 42-57-32 0-66-3-65 30 0 17 8 27 23 27" id="V"/><path fill="#ff7070" d="M190-63c-7 42-38 67-86 67-59 0-84-38-90-98-12-110 154-137 174-36l-49 2c-2-19-15-32-35-32-30 0-35 28-38 64-6 74 65 87 74 30" id="W"/><path fill="#ff7070" d="M114-157C55-157 80-60 75 0H25v-261h50l-1 109c12-26 28-41 61-42 86-1 58 113 63 194h-50c-7-57 23-157-34-157" id="X"/><path fill="#ff7070" d="M185-48c-13 30-37 53-82 52C43 2 14-33 14-96s30-98 90-98c62 0 83 45 84 108H66c0 31 8 55 39 56 18 0 30-7 34-22zm-45-69c5-46-57-63-70-21-2 6-4 13-4 21h74" id="Y"/><g id="k"><use transform="matrix(0.09938271604938267,0,0,0.09938271604938267,0,0)" xlink:href="#U"/><use transform="matrix(0.09938271604938267,0,0,0.09938271604938267,25.740123456790112,0)" xlink:href="#V"/><use transform="matrix(0.09938271604938267,0,0,0.09938271604938267,45.616666666666646,0)" xlink:href="#W"/><use transform="matrix(0.09938271604938267,0,0,0.09938271604938267,65.49320987654318,0)" xlink:href="#X"/><use transform="matrix(0.09938271604938267,0,0,0.09938271604938267,87.25802469135797,0)" xlink:href="#Y"/></g><path fill="#ff7070" d="M199 0l-22-63H83L61 0H9l90-248h61L250 0h-51zm-33-102l-36-108c-10 38-24 72-36 108h72" id="Z"/><path fill="#ff7070" d="M35-132v-50h50v50H35zM35 0v-49h50V0H35" id="aa"/><g id="l"><use transform="matrix(0.09938271604938267,0,0,0.09938271604938267,0,0)" xlink:href="#Z"/><use transform="matrix(0.09938271604938267,0,0,0.09938271604938267,25.740123456790112,0)" xlink:href="#aa"/></g><use transform="matrix(0.09938271604938267,0,0,0.09938271604938267,0,0)" xlink:href="#U" id="m"/><path fill="#5d646f" d="M240-174c0 40-23 61-54 70L253 0h-59l-57-94H76V0H24v-248c93 4 217-23 216 74zM76-134c48-2 112 12 112-38 0-48-66-32-112-35v73" id="ab"/><path fill="#5d646f" d="M25-224v-37h50v37H25zM25 0v-190h50V0H25" id="ac"/><path fill="#5d646f" d="M135-194c87-1 58 113 63 194h-50c-7-57 23-157-34-157-59 0-34 97-39 157H25l-1-190h47c2 12-1 28 3 38 12-26 28-41 61-42" id="ad"/><path fill="#5d646f" d="M195-6C206 82 75 100 31 46c-4-6-6-13-8-21l49-6c3 16 16 24 34 25 40 0 42-37 40-79-11 22-30 35-61 35-53 0-70-43-70-97 0-56 18-96 73-97 30 0 46 14 59 34l2-30h47zm-90-29c32 0 41-27 41-63 0-35-9-62-40-62-32 0-39 29-40 63 0 36 9 62 39 62" id="ae"/><g id="n"><use transform="matrix(0.12407407407407395,0,0,0.12407407407407395,0,0)" xlink:href="#ab"/><use transform="matrix(0.12407407407407395,0,0,0.12407407407407395,32.13518518518515,0)" xlink:href="#ac"/><use transform="matrix(0.12407407407407395,0,0,0.12407407407407395,44.54259259259254,0)" xlink:href="#ad"/><use transform="matrix(0.12407407407407395,0,0,0.12407407407407395,71.71481481481473,0)" xlink:href="#ae"/></g><path fill="#5d646f" d="M14-72v-43h91v43H14" id="af"/><use transform="matrix(0.12407407407407395,0,0,0.12407407407407395,0,0)" xlink:href="#af" id="o"/><path fill="#5d646f" d="M182-182c0 78-84 86-111 141h115V0H12c-6-101 99-100 120-180 1-22-12-31-33-32-23 0-32 14-35 34l-49-3c5-45 32-70 84-70 51 0 83 22 83 69" id="ag"/><use transform="matrix(0.12407407407407395,0,0,0.12407407407407395,0,0)" xlink:href="#ag" id="p"/><path fill="#5d646f" d="M101-251c68 0 85 55 85 127S166 4 100 4C33 4 14-52 14-124c0-73 17-127 87-127zm-1 229c47 0 54-49 54-102s-4-102-53-102c-51 0-55 48-55 102 0 53 5 102 54 102" id="ah"/><use transform="matrix(0.08703703703703701,0,0,0.08703703703703701,0,0)" xlink:href="#ah" id="q"/><path fill="#5d646f" d="M27 0v-27h64v-190l-56 39v-29l58-41h29v221h61V0H27" id="ai"/><use transform="matrix(0.08703703703703701,0,0,0.08703703703703701,0,0)" xlink:href="#ai" id="r"/><path fill="#5d646f" d="M64 0c3-98 48-159 88-221H18v-27h164v26C143-157 98-101 97 0H64" id="aj"/><use transform="matrix(0.08703703703703701,0,0,0.08703703703703701,0,0)" xlink:href="#aj" id="s"/><path fill="#5d646f" d="M101-251c82-7 93 87 43 132L82-64C71-53 59-42 53-27h129V0H18c2-99 128-94 128-182 0-28-16-43-45-43s-46 15-49 41l-32-3c6-41 34-60 81-64" id="ak"/><use transform="matrix(0.08703703703703701,0,0,0.08703703703703701,0,0)" xlink:href="#ak" id="t"/><path fill="#5d646f" d="M110-160c48 1 74 30 74 79 0 53-28 85-80 85-65 0-83-55-86-122-5-90 50-162 133-122 14 7 22 21 27 39l-31 6c-5-40-67-38-82-6-9 19-15 44-15 74 11-20 30-34 60-33zm-7 138c34 0 49-23 49-58s-16-56-50-56c-29 0-50 16-49 49 1 36 15 65 50 65" id="al"/><use transform="matrix(0.08703703703703701,0,0,0.08703703703703701,0,0)" xlink:href="#al" id="u"/><path fill="#5d646f" d="M126-127c33 6 58 20 58 59 0 88-139 92-164 29-3-8-5-16-6-25l32-3c6 27 21 44 54 44 32 0 52-15 52-46 0-38-36-46-79-43v-28c39 1 72-4 72-42 0-27-17-43-46-43-28 0-47 15-49 41l-32-3c6-42 35-63 81-64 48-1 79 21 79 65 0 36-21 52-52 59" id="am"/><use transform="matrix(0.08703703703703701,0,0,0.08703703703703701,0,0)" xlink:href="#am" id="v"/><path fill="#5d646f" d="M54-142c48-35 137-8 131 61C196 18 31 33 14-55l32-4c7 23 22 37 52 37 35-1 51-22 54-58 4-55-73-65-99-34H22l8-134h141v27H59" id="an"/><use transform="matrix(0.08703703703703701,0,0,0.08703703703703701,0,0)" xlink:href="#an" id="w"/><path fill="#5d646f" d="M155-56V0h-30v-56H8v-25l114-167h33v167h35v25h-35zm-30-156c-27 46-58 90-88 131h88v-131" id="ao"/><use transform="matrix(0.08703703703703701,0,0,0.08703703703703701,0,0)" xlink:href="#ao" id="x"/><path fill="#ff7070" d="M30-248c118-7 216 8 213 122C240-48 200 0 122 0H30v-248zM63-27c89 8 146-16 146-99s-60-101-146-95v194" id="ap"/><use transform="matrix(0.09938271604938267,0,0,0.09938271604938267,0,0)" xlink:href="#ap" id="y"/><path fill="#ff7070" d="M76-208v77h127v40H76V0H24v-248h183v40H76" id="aq"/><use transform="matrix(0.09938271604938267,0,0,0.09938271604938267,0,0)" xlink:href="#aq" id="z"/><g id="A"><use transform="matrix(0.09938271604938267,0,0,0.09938271604938267,0,0)" xlink:href="#M"/><use transform="matrix(0.09938271604938267,0,0,0.09938271604938267,25.740123456790112,0)" xlink:href="#N"/><use transform="matrix(0.09938271604938267,0,0,0.09938271604938267,45.616666666666646,0)" xlink:href="#O"/><use transform="matrix(0.09938271604938267,0,0,0.09938271604938267,63.50555555555553,0)" xlink:href="#P"/><use transform="matrix(0.09938271604938267,0,0,0.09938271604938267,83.38209876543206,0)" xlink:href="#Q"/></g><g id="B"><use transform="matrix(0.09938271604938267,0,0,0.09938271604938267,0,0)" xlink:href="#R"/><use transform="matrix(0.09938271604938267,0,0,0.09938271604938267,23.85185185185184,0)" xlink:href="#S"/></g><path fill="#ff7070" d="M54-142c48-35 137-8 131 61C196 18 31 33 14-55l32-4c7 23 22 37 52 37 35-1 51-22 54-58 4-55-73-65-99-34H22l8-134h141v27H59" id="ar"/><path fill="#ff7070" d="M68-38c1 34 0 65-14 84H32c9-13 17-26 17-46H33v-38h35" id="as"/><path fill="#ff7070" d="M64 0c3-98 48-159 88-221H18v-27h164v26C143-157 98-101 97 0H64" id="at"/><g id="C"><use transform="matrix(0.09938271604938267,0,0,0.09938271604938267,0,0)" xlink:href="#ar"/><use transform="matrix(0.09938271604938267,0,0,0.09938271604938267,19.876543209876534,0)" xlink:href="#as"/><use transform="matrix(0.09938271604938267,0,0,0.09938271604938267,29.814814814814802,0)" xlink:href="#at"/></g><path fill="#5d646f" d="M23 0v-37h61v-169l-59 37v-38l62-41h46v211h57V0H23" id="au"/><use transform="matrix(0.12407407407407395,0,0,0.12407407407407395,0,0)" xlink:href="#au" id="D"/><path fill="#ff7070" d="M233-177c-1 41-23 64-60 70L243 0h-38l-65-103H63V0H30v-248c88 3 205-21 203 71zM63-129c60-2 137 13 137-47 0-61-80-42-137-45v92" id="av"/><path fill="#ff7070" d="M24-231v-30h32v30H24zM24 0v-190h32V0H24" id="aw"/><path fill="#ff7070" d="M117-194c89-4 53 116 60 194h-32v-121c0-31-8-49-39-48C34-167 62-67 57 0H25l-1-190h30c1 10-1 24 2 32 11-22 29-35 61-36" id="ax"/><path fill="#ff7070" d="M177-190C167-65 218 103 67 71c-23-6-38-20-44-43l32-5c15 47 100 32 89-28v-30C133-14 115 1 83 1 29 1 15-40 15-95c0-56 16-97 71-98 29-1 48 16 59 35 1-10 0-23 2-32h30zM94-22c36 0 50-32 50-73 0-42-14-75-50-75-39 0-46 34-46 75s6 73 46 73" id="ay"/><path fill="#ff7070" d="M101-251c82-7 93 87 43 132L82-64C71-53 59-42 53-27h129V0H18c2-99 128-94 128-182 0-28-16-43-45-43s-46 15-49 41l-32-3c6-41 34-60 81-64" id="az"/><g id="E"><use transform="matrix(0.09938271604938267,0,0,0.09938271604938267,0,0)" xlink:href="#av"/><use transform="matrix(0.09938271604938267,0,0,0.09938271604938267,25.740123456790112,0)" xlink:href="#aw"/><use transform="matrix(0.09938271604938267,0,0,0.09938271604938267,33.591358024691345,0)" xlink:href="#ax"/><use transform="matrix(0.09938271604938267,0,0,0.09938271604938267,53.467901234567876,0)" xlink:href="#ay"/><use transform="matrix(0.09938271604938267,0,0,0.09938271604938267,73.3444444444444,0)" xlink:href="#az"/></g><g id="F"><use transform="matrix(0.09938271604938267,0,0,0.09938271604938267,0,0)" xlink:href="#av"/><use transform="matrix(0.09938271604938267,0,0,0.09938271604938267,25.740123456790112,0)" xlink:href="#aw"/><use transform="matrix(0.09938271604938267,0,0,0.09938271604938267,33.591358024691345,0)" xlink:href="#ax"/><use transform="matrix(0.09938271604938267,0,0,0.09938271604938267,53.467901234567876,0)" xlink:href="#ay"/><use transform="matrix(0.09938271604938267,0,0,0.09938271604938267,73.3444444444444,0)" xlink:href="#az"/><use transform="matrix(0.09938271604938267,0,0,0.09938271604938267,93.22098765432094,0)" xlink:href="#S"/></g></defs></g></svg>