<svg xmlns="http://www.w3.org/2000/svg" xmlns:xlink="http://www.w3.org/1999/xlink" xmlns:lucid="lucid" width="4180" height="1220"><g transform="translate(-140 -120)" lucid:page-tab-id="0_0"><path d="M0 0h5039.37v1688.2H0z" fill="#282c33"/><path d="M2404.88 288c0-4.42 3.58-8 8-8h224c4.42 0 8 3.58 8 8v44c0 4.42-3.58 8-8 8h-224c-4.42 0-8-3.58-8-8z" stroke="#000" stroke-opacity="0" stroke-width="4" fill="#fff" fill-opacity="0"/><use xlink:href="#a" transform="matrix(1,0,0,1,2409.881889763754,285) translate(49.6061728395062 31.747222222222213)"/><use xlink:href="#b" transform="matrix(1,0,0,1,2409.881889763754,285) translate(138.75246913580247 31.747222222222213)"/><use xlink:href="#c" transform="matrix(1,0,0,1,2409.881889763754,285) translate(160.51728395061727 31.747222222222213)"/><path d="M2949.12 800c0 220.9-189.94 400-424.24 400s-424.24-179.1-424.24-400 189.94-400 424.24-400 424.24 179.1 424.24 400z" stroke="#ff7070" stroke-opacity=".2" stroke-width="7" fill-opacity="0"/><path d="M2580 410c0 27.6-22.4 50-50 50s-50-22.4-50-50 22.4-50 50-50 50 22.4 50 50z" fill="#fff"/><use xlink:href="#d" transform="matrix(1,0,0,1,2485,365) translate(36.2962962962963 50.37916666666666)"/><path d="M2860 510c0 27.6-22.4 50-50 50s-50-22.4-50-50 22.4-50 50-50 50 22.4 50 50z" fill="#fff"/><use xlink:href="#e" transform="matrix(1,0,0,1,2765,465) translate(36.2962962962963 50.37916666666666)"/><path d="M2300 510c0 27.6-22.4 50-50 50s-50-22.4-50-50 22.4-50 50-50 50 22.4 50 50z" fill="#fff"/><use xlink:href="#f" transform="matrix(1,0,0,1,2205,465) translate(36.2962962962963 50.37916666666666)"/><path d="M3000 800c0 27.6-22.4 50-50 50s-50-22.4-50-50 22.4-50 50-50 50 22.4 50 50z" fill="#3aa6dd"/><use xlink:href="#g" transform="matrix(1,0,0,1,2905,755) translate(36.2962962962963 50.37916666666666)"/><path d="M2160 800c0 27.6-22.4 50-50 50s-50-22.4-50-50 22.4-50 50-50 50 22.4 50 50z" fill="#fff"/><use xlink:href="#h" transform="matrix(1,0,0,1,2065,755) translate(36.2962962962963 50.37916666666666)"/><path d="M2860 1090c0 27.6-22.4 50-50 50s-50-22.4-50-50 22.4-50 50-50 50 22.4 50 50z" fill="#fff"/><use xlink:href="#i" transform="matrix(1,0,0,1,2765,1045) translate(36.2962962962963 50.37916666666666)"/><path d="M2300 1090c0 27.6-22.4 50-50 50s-50-22.4-50-50 22.4-50 50-50 50 22.4 50 50z" fill="#fff"/><use xlink:href="#j" transform="matrix(1,0,0,1,2205,1045) translate(36.2962962962963 50.37916666666666)"/><path d="M2580 1190c0 27.6-22.4 50-50 50s-50-22.4-50-50 22.4-50 50-50 50 22.4 50 50z" fill="#fff"/><use xlink:href="#k" transform="matrix(1,0,0,1,2485,1145) translate(36.2962962962963 50.37916666666666)"/><path d="M260 844.1c0 27.6-22.4 50-50 50s-50-22.4-50-50c0-27.62 22.4-50 50-50s50 22.38 50 50z" fill="#99d5ca"/><use xlink:href="#l" transform="matrix(1,0,0,1,165,799.0944881889765) translate(34.55555555555556 50.37916666666666)"/><path d="M560 550c0 27.6-22.4 50-50 50s-50-22.4-50-50 22.4-50 50-50 50 22.4 50 50z" fill="#99d5ca"/><use xlink:href="#m" transform="matrix(1,0,0,1,465,505) translate(36.2962962962963 50.37916666666666)"/><path d="M560 1170c0 27.6-22.4 50-50 50s-50-22.4-50-50 22.4-50 50-50 50 22.4 50 50z" fill="#99d5ca"/><use xlink:href="#m" transform="matrix(1,0,0,1,465,1125) translate(36.2962962962963 50.37916666666666)"/><path d="M840 1270c0 27.6-22.4 50-50 50s-50-22.4-50-50 22.4-50 50-50 50 22.4 50 50z" fill="#99d5ca"/><use xlink:href="#m" transform="matrix(1,0,0,1,745,1225) translate(36.2962962962963 50.37916666666666)"/><path d="M840 1070c0 27.6-22.4 50-50 50s-50-22.4-50-50 22.4-50 50-50 50 22.4 50 50z" fill="#99d5ca"/><use xlink:href="#m" transform="matrix(1,0,0,1,745,1025) translate(36.2962962962963 50.37916666666666)"/><path d="M840 650c0 27.6-22.4 50-50 50s-50-22.4-50-50 22.4-50 50-50 50 22.4 50 50z" fill="#99d5ca"/><use xlink:href="#m" transform="matrix(1,0,0,1,745,605) translate(36.2962962962963 50.37916666666666)"/><path d="M840 450c0 27.6-22.4 50-50 50s-50-22.4-50-50 22.4-50 50-50 50 22.4 50 50z" fill="#99d5ca"/><use xlink:href="#m" transform="matrix(1,0,0,1,745,405) translate(36.2962962962963 50.37916666666666)"/><path d="M1279.13 308c0-4.42 3.6-8 8-8h224c4.42 0 8 3.58 8 8v4c0 4.42-3.58 8-8 8h-224c-4.4 0-8-3.58-8-8z" stroke="#000" stroke-opacity="0" stroke-width="4" fill="#fff" fill-opacity="0"/><use xlink:href="#a" transform="matrix(1,0,0,1,1284.1338553698388,305) translate(49.6061728395062 28.622222222222213)"/><use xlink:href="#b" transform="matrix(1,0,0,1,1284.1338553698388,305) translate(138.75246913580247 28.622222222222213)"/><use xlink:href="#n" transform="matrix(1,0,0,1,1284.1338553698388,305) translate(160.51728395061727 28.622222222222213)"/><path d="M1589 546.56c0 96.65-83.1 175-185.6 175-102.52 0-185.62-78.35-185.62-175s83.1-175 185.6-175 185.6 78.35 185.6 175z" stroke="#ff7070" stroke-opacity=".2" stroke-width="7" fill-opacity="0"/><path d="M1427.5 375.93c0 12.08-9.8 21.88-21.88 21.88-12.08 0-21.87-9.8-21.87-21.87 0-12.08 9.8-21.87 21.88-21.87 12.08 0 21.87 9.8 21.87 21.87z" fill="#fff"/><use xlink:href="#d" transform="matrix(1,0,0,1,1388.75,359.05518186355044) translate(8.2962962962963 25.066666666666663)"/><path d="M1550 419.68c0 12.08-9.8 21.88-21.88 21.88-12.08 0-21.87-9.8-21.87-21.88 0-12.08 9.8-21.87 21.88-21.87 12.08 0 21.87 9.8 21.87 21.88z" fill="#fff"/><use xlink:href="#e" transform="matrix(1,0,0,1,1511.25,402.80518186355044) translate(8.2962962962963 25.066666666666663)"/><path d="M1305 419.68c0 12.08-9.8 21.88-21.88 21.88-12.08 0-21.87-9.8-21.87-21.88 0-12.08 9.8-21.87 21.88-21.87 12.08 0 21.87 9.8 21.87 21.88z" fill="#fff"/><use xlink:href="#f" transform="matrix(1,0,0,1,1266.25,402.80518186355044) translate(8.2962962962963 25.066666666666663)"/><path d="M1611.25 546.56c0 12.08-9.8 21.87-21.88 21.87-12.08 0-21.87-9.8-21.87-21.87 0-12.1 9.8-21.88 21.88-21.88 12.08 0 21.87 9.8 21.87 21.88z" fill="#fff"/><use xlink:href="#g" transform="matrix(1,0,0,1,1572.5,529.6801818635504) translate(8.2962962962963 25.066666666666663)"/><path d="M1243.75 546.56c0 12.08-9.8 21.87-21.88 21.87-12.08 0-21.87-9.8-21.87-21.87 0-12.1 9.8-21.88 21.88-21.88 12.08 0 21.87 9.8 21.87 21.88z" fill="#99d5ca"/><use xlink:href="#h" transform="matrix(1,0,0,1,1205,529.6801818635504) translate(8.2962962962963 25.066666666666663)"/><path d="M1550 673.43c0 12.08-9.8 21.88-21.88 21.88-12.08 0-21.87-9.8-21.87-21.87 0-12.08 9.8-21.87 21.88-21.87 12.08 0 21.87 9.8 21.87 21.87z" fill="#fff"/><use xlink:href="#i" transform="matrix(1,0,0,1,1511.25,656.5551818635504) translate(8.2962962962963 25.066666666666663)"/><path d="M1305 673.43c0 12.08-9.8 21.88-21.88 21.88-12.08 0-21.87-9.8-21.87-21.87 0-12.08 9.8-21.87 21.88-21.87 12.08 0 21.87 9.8 21.87 21.87z" fill="#fff"/><use xlink:href="#j" transform="matrix(1,0,0,1,1266.25,656.5551818635504) translate(8.2962962962963 25.066666666666663)"/><path d="M1427.5 717.18c0 12.08-9.8 21.88-21.88 21.88-12.08 0-21.87-9.8-21.87-21.88 0-12.08 9.8-21.87 21.88-21.87 12.08 0 21.87 9.8 21.87 21.88z" fill="#fff"/><use xlink:href="#k" transform="matrix(1,0,0,1,1388.75,700.3051818635504) translate(8.2962962962963 25.066666666666663)"/><path d="M1551.98 419.96l625.5 86.9" stroke="#ff8f80" stroke-width="4" fill="none"/><path d="M1552.3 417.98l-.54 3.96-2-.27.24-2-.2-2.04z" fill="#ff8f80"/><path d="M2193.6 509.1l-14.78 2.64 1.28-9.2z" stroke="#ff8f80" stroke-width="4" fill="#ff8f80"/><path d="M2180.4 1078.32l-1.75 3.6L1848.1 922.4h9.2zm-401-193.53h-9.2l-341.77-164.95 1.74-3.6z" fill="#ff8f80"/><path d="M1430.22 716.27l-1.74 3.6-1.22-.6.24-2.1-.23-2.32zM2194.17 1087.2l-14.86-2.04 4.04-8.35z" fill="#ff8f80"/><path d="M2200 1090l-23.7-3.23 6.43-13.3zm-17.7-6.45l6.04.82-4.4-4.2z" fill="#ff8f80"/><path d="M841.93 450.52l336.1 90.14" stroke="#ff8f80" stroke-width="4" fill="none"/><path d="M842.5 448.6l-1.04 3.86-1.56-.42.1-2.04-.07-2.1z" fill="#ff8f80"/><path d="M1193.75 544.88l-14.98.78 2.4-8.95z" stroke="#ff8f80" stroke-width="4" fill="#ff8f80"/><path d="M1069.13 148c0-4.42 3.6-8 8-8h644c4.42 0 8 3.58 8 8v85.2c0 4.42-3.58 8-8 8h-644c-4.4 0-8-3.58-8-8z" stroke="#000" stroke-opacity="0" stroke-width="4" fill="#fff" fill-opacity="0"/><use xlink:href="#o" transform="matrix(1,0,0,1,1074.1338553698388,145) translate(60.47777777777793 30.399999999999984)"/><use xlink:href="#p" transform="matrix(1,0,0,1,1074.1338553698388,145) translate(168.03888888888898 30.399999999999984)"/><use xlink:href="#q" transform="matrix(1,0,0,1,1074.1338553698388,145) translate(336.61111111111114 30.399999999999984)"/><use xlink:href="#r" transform="matrix(1,0,0,1,1074.1338553698388,145) translate(378.8333333333333 30.399999999999984)"/><use xlink:href="#s" transform="matrix(1,0,0,1,1074.1338553698388,145) translate(500.96111111111105 30.399999999999984)"/><use xlink:href="#t" transform="matrix(1,0,0,1,1074.1338553698388,145) translate(121.33055555555566 75.99999999999997)"/><use xlink:href="#u" transform="matrix(1,0,0,1,1074.1338553698388,145) translate(195.21944444444452 75.99999999999997)"/><use xlink:href="#v" transform="matrix(1,0,0,1,1074.1338553698388,145) translate(226.88611111111118 75.99999999999997)"/><use xlink:href="#w" transform="matrix(1,0,0,1,1074.1338553698388,145) translate(345.00277777777774 75.99999999999997)"/><use xlink:href="#x" transform="matrix(1,0,0,1,1074.1338553698388,145) translate(376.6694444444444 75.99999999999997)"/><use xlink:href="#y" transform="matrix(1,0,0,1,1074.1338553698388,145) translate(461.1138888888888 75.99999999999997)"/><use xlink:href="#z" transform="matrix(1,0,0,1,1074.1338553698388,145) translate(503.336111111111 75.99999999999997)"/><path d="M4300 830c0 27.6-22.4 50-50 50s-50-22.4-50-50 22.4-50 50-50 50 22.4 50 50z" fill="#3aa6dd"/><use xlink:href="#A" transform="matrix(1,0,0,1,4205,785) translate(34.55555555555556 50.37916666666666)"/><path d="M3860 510c0 27.6-22.4 50-50 50s-50-22.4-50-50 22.4-50 50-50 50 22.4 50 50z" fill="#3aa6dd"/><use xlink:href="#B" transform="matrix(1,0,0,1,3765,465) translate(36.2962962962963 50.37916666666666)"/><path d="M3860 1130c0 27.6-22.4 50-50 50s-50-22.4-50-50 22.4-50 50-50 50 22.4 50 50z" fill="#3aa6dd"/><use xlink:href="#B" transform="matrix(1,0,0,1,3765,1085) translate(36.2962962962963 50.37916666666666)"/><path d="M3400 810c0 27.6-22.4 50-50 50s-50-22.4-50-50 22.4-50 50-50 50 22.4 50 50z" fill="#3aa6dd"/><use xlink:href="#B" transform="matrix(1,0,0,1,3305,765) translate(36.2962962962963 50.37916666666666)"/><path d="M3298 810h-276.26" stroke="#ff8f80" stroke-width="4" fill="none"/><path d="M3300 810l.07 2h-2.12v-4h2.15z" fill="#ff8f80"/><path d="M3005.47 810l14.27-4.64v9.28z" stroke="#ff8f80" stroke-width="4" fill="#ff8f80"/><path d="M4221.37 786.76l-16.14-11.1m-16.15-11.1l-3.22-2.24m-16.15-11.1l-3.22-2.23m-16.14-11.1l-32.3-22.23m-16.14-11.1l-3.23-2.23m-16.14-11.1l-3.23-2.23m-16.15-11.1l-32.3-22.2m-16.13-11.12l-3.23-2.22m-16.16-11.1l-3.23-2.23m-16.13-11.1l-32.3-22.23m-16.14-11.1l-3.22-2.23m-16.14-11.1l-3.23-2.23m-16.14-11.1l-16.16-11.1" stroke="#7ab648" stroke-width="4" fill="none"/><path d="M4224.95 786.8l-1.93 1.1-1.73 1.23-1.1-.75 2.27-3.3z" fill="#7ab648"/><path d="M3859.24 537.6l14.38 4.27-5.25 7.64z" stroke="#7ab648" stroke-width="4" fill="#7ab648"/><path d="M4211.43 864.78L4196 876.43m-15.43 11.64l-3.1 2.33m-15.42 11.64l-3.08 2.33m-15.43 11.65l-30.86 23.3m-15.43 11.63l-3.1 2.33m-15.42 11.64l-3.08 2.33m-15.43 11.65l-30.86 23.3m-15.43 11.63l-3.1 2.33m-15.42 11.64l-3.07 2.33m-15.43 11.65l-30.86 23.3m-15.43 11.63l-3.08 2.34m-15.43 11.64l-3.1 2.33m-15.42 11.66l-15.43 11.64" stroke="#7ab648" stroke-width="4" fill="none"/><path d="M4214.13 864.83l.25.23-1.8 1.35-2.4-3.18 1.52-1.15z" fill="#7ab648"/><path d="M3865.17 1126.1l8.6-12.3 5.58 7.4z" stroke="#7ab648" stroke-width="4" fill="#7ab648"/><path d="M3758.5 1128.67l-15.8-14.05m-15.82-14.06l-3.16-2.8m-15.8-14.06l-3.17-2.8m-15.8-14.07l-31.63-28.1m-15.8-14.06l-3.18-2.8m-15.8-14.06l-3.17-2.8m-15.8-14.06l-31.63-28.1m-15.8-14.06l-3.17-2.8m-15.8-14.06l-3.18-2.8m-15.82-14.07l-31.62-28.1m-15.8-14.06l-3.17-2.82m-15.82-14.06l-3.16-2.8m-15.8-14.06l-15.83-14.05" stroke="#7ab648" stroke-width="4" fill="none"/><path d="M3760.13 1127.44l-.13 2.56.1 2.76-2.96-2.63 2.66-3z" fill="#7ab648"/><path d="M3404.84 814.3l13.74 6-6.16 6.94z" stroke="#7ab648" stroke-width="4" fill="#7ab648"/><path d="M3758.46 511.28l-15.78 13.16m-15.8 13.15l-3.15 2.62m-15.78 13.16l-3.16 2.63m-15.8 13.17l-31.57 26.3m-15.8 13.16l-3.15 2.63m-15.78 13.16l-3.16 2.63m-15.8 13.16l-31.56 26.32m-15.8 13.15l-3.15 2.63m-15.78 13.16l-3.16 2.63m-15.8 13.15l-31.57 26.3m-15.8 13.16l-3.14 2.65m-15.8 13.15l-3.16 2.63m-15.8 13.16l-15.77 13.14" stroke="#7ab648" stroke-width="4" fill="none"/><path d="M3760 510l.1 2.53-.4.32-2.56-3.07 3-2.5z" fill="#7ab648"/><path d="M3404.97 805.86l8-12.7 5.93 7.12z" stroke="#7ab648" stroke-width="4" fill="#7ab648"/><path d="M3298 810h-17.05m-17.06 0h-3.42m-17.05 0h-3.4m-17.06 0h-34.1m-17.06 0h-3.4m-17.06 0h-3.4m-17.06 0h-34.1m-17.06 0h-3.4m-17.07 0h-3.4m-17.06 0h-17.06" stroke="#7ab648" stroke-width="4" fill="none"/><path d="M3300 810l.07 2h-2.12v-4h2.15z" fill="#7ab648"/><path d="M3005.47 810l14.27-4.64v9.28z" stroke="#7ab648" stroke-width="4" fill="#7ab648"/><path d="M2948.8 851.6l-11.6 15.76m-11.6 15.75l-2.32 3.16m-11.6 15.75l-2.32 3.16m-11.6 15.74l-23.2 31.5m-11.62 15.75l-2.32 3.15m-11.6 15.75l-2.32 3.15m-11.6 15.75l-11.6 15.74" stroke="#7ab648" stroke-width="4" fill="none"/><path d="M2950 850l2.55-.1-2.16 2.94-3.23-2.38.43-.58z" fill="#7ab648"/><path d="M2813.84 1034.8l4.73-14.24 7.46 5.5z" stroke="#7ab648" stroke-width="4" fill="#7ab648"/><path d="M2758 1092h-20.15v-4H2758zm-40.3 0h-4.03v-4h4.03zm-24.18 0h-4.03v-4h4.02zm-326.45 0h-4.03v-4h4.03zm-24.18 0h-20.16v-4h20.15z" fill="#7ab648"/><path d="M2760 1090l.07 2h-2.12v-4h2.15zM2320.74 1094.64l-14.27-4.64 14.27-4.64z" fill="#7ab648"/><path d="M2322.74 1097.4L2300 1090l22.74-7.4zm-9.8-7.4l5.8 1.88v-3.76z" fill="#7ab648"/><g><use xlink:href="#C" transform="matrix(1,0,0,1,2371.9842592592595,1071.2) translate(0 25.066666666666656)"/><use xlink:href="#D" transform="matrix(1,0,0,1,2371.9842592592595,1071.2) translate(85.12222222222216 25.066666666666656)"/><use xlink:href="#E" transform="matrix(1,0,0,1,2371.9842592592595,1071.2) translate(163.19444444444434 25.066666666666656)"/></g><path d="M2199.07 1087.33l-1.74 3.6-17.37-8.38 1.74-3.6zm-34.73-16.76l-1.74 3.6-3.48-1.68 1.74-3.6zm-20.84-10.06l-1.74 3.6-3.48-1.66 1.74-3.6zm-20.84-10.05l-1.74 3.6-34.73-16.76 1.72-3.6zm-52.1-25.14l-1.74 3.6-3.47-1.67 1.73-3.6zm-20.84-10.05l-1.74 3.6-3.47-1.67 1.75-3.6zm-20.84-10.06l-1.74 3.6-34.73-16.77 1.75-3.6zm-52.1-25.15l-1.74 3.6-3.47-1.67 1.74-3.6zM1955.94 970l-1.74 3.6-3.47-1.68 1.74-3.6zm-20.84-10.06l-1.74 3.6-34.73-16.76 1.74-3.6zM1883 934.8l-1.74 3.6-3.47-1.68 1.73-3.6zm-20.84-10.07l-1.74 3.6-3.47-1.67 1.74-3.6zm-93.77-45.25l-1.75 3.6-3.48-1.68 1.74-3.6zm-20.85-10.06l-1.74 3.6-34.72-16.76 1.73-3.6zm-52.1-25.15l-1.74 3.6-3.46-1.67 1.73-3.6zm-20.84-10.05l-1.73 3.6-3.47-1.68 1.73-3.6zm-20.83-10.06l-1.74 3.6L1617.3 811l1.74-3.6zm-52.1-25.14l-1.74 3.6-3.47-1.68 1.74-3.6zm-20.84-10.06l-1.74 3.6-3.48-1.67 1.74-3.62zM1560 778.9l-1.75 3.6-34.73-16.76 1.74-3.6zm-52.1-25.14l-1.75 3.6-3.47-1.68 1.74-3.6zm-20.85-10.06l-1.74 3.6-3.46-1.67 1.74-3.6zm-20.84-10.06l-1.73 3.6-17.36-8.38 1.75-3.6z" fill="#7ab648"/><path d="M2200.1 1087.83l-.1 2.17.08 2.26-2.8-1.35 1.74-3.6zM1448.2 722.02l-4.04 8.35-10.83-10.38z" fill="#7ab648"/><path d="M1451.2 720.4l-6.43 13.32-17.27-16.54zm-7.64 6.62l1.63-3.4-6.04-.8z" fill="#7ab648"/><g><use xlink:href="#F" transform="matrix(1,0,0,1,1663.3500000000001,884.7900909317752) translate(0 25.066666666666663)"/><use xlink:href="#G" transform="matrix(1,0,0,1,1663.3500000000001,884.7900909317752) translate(86.94999999999997 25.066666666666663)"/><use xlink:href="#H" transform="matrix(1,0,0,1,1663.3500000000001,884.7900909317752) translate(159.88703703703698 25.066666666666663)"/></g><defs><path fill="#5d646f" d="M240-174c0 40-23 61-54 70L253 0h-59l-57-94H76V0H24v-248c93 4 217-23 216 74zM76-134c48-2 112 12 112-38 0-48-66-32-112-35v73" id="I"/><path fill="#5d646f" d="M25-224v-37h50v37H25zM25 0v-190h50V0H25" id="J"/><path fill="#5d646f" d="M135-194c87-1 58 113 63 194h-50c-7-57 23-157-34-157-59 0-34 97-39 157H25l-1-190h47c2 12-1 28 3 38 12-26 28-41 61-42" id="K"/><path fill="#5d646f" d="M195-6C206 82 75 100 31 46c-4-6-6-13-8-21l49-6c3 16 16 24 34 25 40 0 42-37 40-79-11 22-30 35-61 35-53 0-70-43-70-97 0-56 18-96 73-97 30 0 46 14 59 34l2-30h47zm-90-29c32 0 41-27 41-63 0-35-9-62-40-62-32 0-39 29-40 63 0 36 9 62 39 62" id="L"/><g id="a"><use transform="matrix(0.09938271604938267,0,0,0.09938271604938267,0,0)" xlink:href="#I"/><use transform="matrix(0.09938271604938267,0,0,0.09938271604938267,25.740123456790112,0)" xlink:href="#J"/><use transform="matrix(0.09938271604938267,0,0,0.09938271604938267,35.67839506172838,0)" xlink:href="#K"/><use transform="matrix(0.09938271604938267,0,0,0.09938271604938267,57.443209876543186,0)" xlink:href="#L"/></g><path fill="#5d646f" d="M14-72v-43h91v43H14" id="M"/><use transform="matrix(0.09938271604938267,0,0,0.09938271604938267,0,0)" xlink:href="#M" id="b"/><path fill="#5d646f" d="M23 0v-37h61v-169l-59 37v-38l62-41h46v211h57V0H23" id="N"/><use transform="matrix(0.09938271604938267,0,0,0.09938271604938267,0,0)" xlink:href="#N" id="c"/><path fill="#5d646f" d="M101-251c68 0 85 55 85 127S166 4 100 4C33 4 14-52 14-124c0-73 17-127 87-127zm-1 229c47 0 54-49 54-102s-4-102-53-102c-51 0-55 48-55 102 0 53 5 102 54 102" id="O"/><use transform="matrix(0.08703703703703701,0,0,0.08703703703703701,0,0)" xlink:href="#O" id="d"/><path fill="#5d646f" d="M27 0v-27h64v-190l-56 39v-29l58-41h29v221h61V0H27" id="P"/><use transform="matrix(0.08703703703703701,0,0,0.08703703703703701,0,0)" xlink:href="#P" id="e"/><path fill="#5d646f" d="M64 0c3-98 48-159 88-221H18v-27h164v26C143-157 98-101 97 0H64" id="Q"/><use transform="matrix(0.08703703703703701,0,0,0.08703703703703701,0,0)" xlink:href="#Q" id="f"/><path fill="#5d646f" d="M101-251c82-7 93 87 43 132L82-64C71-53 59-42 53-27h129V0H18c2-99 128-94 128-182 0-28-16-43-45-43s-46 15-49 41l-32-3c6-41 34-60 81-64" id="R"/><use transform="matrix(0.08703703703703701,0,0,0.08703703703703701,0,0)" xlink:href="#R" id="g"/><path fill="#5d646f" d="M110-160c48 1 74 30 74 79 0 53-28 85-80 85-65 0-83-55-86-122-5-90 50-162 133-122 14 7 22 21 27 39l-31 6c-5-40-67-38-82-6-9 19-15 44-15 74 11-20 30-34 60-33zm-7 138c34 0 49-23 49-58s-16-56-50-56c-29 0-50 16-49 49 1 36 15 65 50 65" id="S"/><use transform="matrix(0.08703703703703701,0,0,0.08703703703703701,0,0)" xlink:href="#S" id="h"/><path fill="#5d646f" d="M126-127c33 6 58 20 58 59 0 88-139 92-164 29-3-8-5-16-6-25l32-3c6 27 21 44 54 44 32 0 52-15 52-46 0-38-36-46-79-43v-28c39 1 72-4 72-42 0-27-17-43-46-43-28 0-47 15-49 41l-32-3c6-42 35-63 81-64 48-1 79 21 79 65 0 36-21 52-52 59" id="T"/><use transform="matrix(0.08703703703703701,0,0,0.08703703703703701,0,0)" xlink:href="#T" id="i"/><path fill="#5d646f" d="M54-142c48-35 137-8 131 61C196 18 31 33 14-55l32-4c7 23 22 37 52 37 35-1 51-22 54-58 4-55-73-65-99-34H22l8-134h141v27H59" id="U"/><use transform="matrix(0.08703703703703701,0,0,0.08703703703703701,0,0)" xlink:href="#U" id="j"/><path fill="#5d646f" d="M155-56V0h-30v-56H8v-25l114-167h33v167h35v25h-35zm-30-156c-27 46-58 90-88 131h88v-131" id="V"/><use transform="matrix(0.08703703703703701,0,0,0.08703703703703701,0,0)" xlink:href="#V" id="k"/><path fill="#5d646f" d="M205 0l-28-72H64L36 0H1l101-248h38L239 0h-34zm-38-99l-47-123c-12 45-31 82-46 123h93" id="W"/><use transform="matrix(0.08703703703703701,0,0,0.08703703703703701,0,0)" xlink:href="#W" id="l"/><path fill="#5d646f" d="M103-251c84 0 111 97 45 133-19 10-37 24-39 52H78c0-63 77-55 77-114 0-30-21-42-52-43-32 0-53 17-56 46l-32-2c7-45 34-72 88-72zM77 0v-35h34V0H77" id="X"/><use transform="matrix(0.08703703703703701,0,0,0.08703703703703701,0,0)" xlink:href="#X" id="m"/><path fill="#5d646f" d="M182-182c0 78-84 86-111 141h115V0H12c-6-101 99-100 120-180 1-22-12-31-33-32-23 0-32 14-35 34l-49-3c5-45 32-70 84-70 51 0 83 22 83 69" id="Y"/><use transform="matrix(0.09938271604938267,0,0,0.09938271604938267,0,0)" xlink:href="#Y" id="n"/><path fill="#fff" d="M30 0v-248h187v28H63v79h144v27H63v87h162V0H30" id="Z"/><path fill="#fff" d="M108 0H70L1-190h34L89-25l56-165h34" id="aa"/><path fill="#fff" d="M100-194c63 0 86 42 84 106H49c0 40 14 67 53 68 26 1 43-12 49-29l28 8c-11 28-37 45-77 45C44 4 14-33 15-96c1-61 26-98 85-98zm52 81c6-60-76-77-97-28-3 7-6 17-6 28h103" id="ab"/><path fill="#fff" d="M114-163C36-179 61-72 57 0H25l-1-190h30c1 12-1 29 2 39 6-27 23-49 58-41v29" id="ac"/><path fill="#fff" d="M179-190L93 31C79 59 56 82 12 73V49c39 6 53-20 64-50L1-190h34L92-34l54-156h33" id="ad"/><g id="o"><use transform="matrix(0.1055555555555555,0,0,0.1055555555555555,0,0)" xlink:href="#Z"/><use transform="matrix(0.1055555555555555,0,0,0.1055555555555555,25.33333333333332,0)" xlink:href="#aa"/><use transform="matrix(0.1055555555555555,0,0,0.1055555555555555,44.333333333333314,0)" xlink:href="#ab"/><use transform="matrix(0.1055555555555555,0,0,0.1055555555555555,65.44444444444441,0)" xlink:href="#ac"/><use transform="matrix(0.1055555555555555,0,0,0.1055555555555555,78.00555555555552,0)" xlink:href="#ad"/></g><path fill="#fff" d="M210-169c-67 3-38 105-44 169h-31v-121c0-29-5-50-35-48C34-165 62-65 56 0H25l-1-190h30c1 10-1 24 2 32 10-44 99-50 107 0 11-21 27-35 58-36 85-2 47 119 55 194h-31v-121c0-29-5-49-35-48" id="ae"/><path fill="#fff" d="M115-194c53 0 69 39 70 98 0 66-23 100-70 100C84 3 66-7 56-30L54 0H23l1-261h32v101c10-23 28-34 59-34zm-8 174c40 0 45-34 45-75 0-40-5-75-45-74-42 0-51 32-51 76 0 43 10 73 51 73" id="af"/><path fill="#fff" d="M135-143c-3-34-86-38-87 0 15 53 115 12 119 90S17 21 10-45l28-5c4 36 97 45 98 0-10-56-113-15-118-90-4-57 82-63 122-42 12 7 21 19 24 35" id="ag"/><g id="p"><use transform="matrix(0.1055555555555555,0,0,0.1055555555555555,0,0)" xlink:href="#ae"/><use transform="matrix(0.1055555555555555,0,0,0.1055555555555555,31.561111111111096,0)" xlink:href="#ab"/><use transform="matrix(0.1055555555555555,0,0,0.1055555555555555,52.672222222222196,0)" xlink:href="#ae"/><use transform="matrix(0.1055555555555555,0,0,0.1055555555555555,84.23333333333329,0)" xlink:href="#af"/><use transform="matrix(0.1055555555555555,0,0,0.1055555555555555,105.34444444444439,0)" xlink:href="#ab"/><use transform="matrix(0.1055555555555555,0,0,0.1055555555555555,126.45555555555549,0)" xlink:href="#ac"/><use transform="matrix(0.1055555555555555,0,0,0.1055555555555555,139.0166666666666,0)" xlink:href="#ag"/></g><path fill="#fff" d="M100-194c62-1 85 37 85 99 1 63-27 99-86 99S16-35 15-95c0-66 28-99 85-99zM99-20c44 1 53-31 53-75 0-43-8-75-51-75s-53 32-53 75 10 74 51 75" id="ah"/><path fill="#fff" d="M101-234c-31-9-42 10-38 44h38v23H63V0H32v-167H5v-23h27c-7-52 17-82 69-68v24" id="ai"/><g id="q"><use transform="matrix(0.1055555555555555,0,0,0.1055555555555555,0,0)" xlink:href="#ah"/><use transform="matrix(0.1055555555555555,0,0,0.1055555555555555,21.1111111111111,0)" xlink:href="#ai"/></g><path fill="#fff" d="M233-177c-1 41-23 64-60 70L243 0h-38l-65-103H63V0H30v-248c88 3 205-21 203 71zM63-129c60-2 137 13 137-47 0-61-80-42-137-45v92" id="aj"/><path fill="#fff" d="M24-231v-30h32v30H24zM24 0v-190h32V0H24" id="ak"/><path fill="#fff" d="M117-194c89-4 53 116 60 194h-32v-121c0-31-8-49-39-48C34-167 62-67 57 0H25l-1-190h30c1 10-1 24 2 32 11-22 29-35 61-36" id="al"/><path fill="#fff" d="M177-190C167-65 218 103 67 71c-23-6-38-20-44-43l32-5c15 47 100 32 89-28v-30C133-14 115 1 83 1 29 1 15-40 15-95c0-56 16-97 71-98 29-1 48 16 59 35 1-10 0-23 2-32h30zM94-22c36 0 50-32 50-73 0-42-14-75-50-75-39 0-46 34-46 75s6 73 46 73" id="am"/><path fill="#fff" d="M16-82v-28h88v28H16" id="an"/><path fill="#fff" d="M101-251c82-7 93 87 43 132L82-64C71-53 59-42 53-27h129V0H18c2-99 128-94 128-182 0-28-16-43-45-43s-46 15-49 41l-32-3c6-41 34-60 81-64" id="ao"/><g id="r"><use transform="matrix(0.1055555555555555,0,0,0.1055555555555555,0,0)" xlink:href="#aj"/><use transform="matrix(0.1055555555555555,0,0,0.1055555555555555,27.338888888888874,0)" xlink:href="#ak"/><use transform="matrix(0.1055555555555555,0,0,0.1055555555555555,35.67777777777776,0)" xlink:href="#al"/><use transform="matrix(0.1055555555555555,0,0,0.1055555555555555,56.788888888888856,0)" xlink:href="#am"/><use transform="matrix(0.1055555555555555,0,0,0.1055555555555555,77.89999999999996,0)" xlink:href="#an"/><use transform="matrix(0.1055555555555555,0,0,0.1055555555555555,90.46111111111107,0)" xlink:href="#ao"/></g><path fill="#fff" d="M143 0L79-87 56-68V0H24v-261h32v163l83-92h37l-77 82L181 0h-38" id="ap"/><path fill="#fff" d="M206 0h-36l-40-164L89 0H53L-1-190h32L70-26l43-164h34l41 164 42-164h31" id="aq"/><g id="s"><use transform="matrix(0.1055555555555555,0,0,0.1055555555555555,0,0)" xlink:href="#ap"/><use transform="matrix(0.1055555555555555,0,0,0.1055555555555555,18.99999999999999,0)" xlink:href="#al"/><use transform="matrix(0.1055555555555555,0,0,0.1055555555555555,40.111111111111086,0)" xlink:href="#ah"/><use transform="matrix(0.1055555555555555,0,0,0.1055555555555555,61.22222222222219,0)" xlink:href="#aq"/></g><path fill="#fff" d="M59-47c-2 24 18 29 38 22v24C64 9 27 4 27-40v-127H5v-23h24l9-43h21v43h35v23H59v120" id="ar"/><path fill="#fff" d="M106-169C34-169 62-67 57 0H25v-261h32l-1 103c12-21 28-36 61-36 89 0 53 116 60 194h-32v-121c2-32-8-49-39-48" id="as"/><path fill="#fff" d="M141-36C126-15 110 5 73 4 37 3 15-17 15-53c-1-64 63-63 125-63 3-35-9-54-41-54-24 1-41 7-42 31l-33-3c5-37 33-52 76-52 45 0 72 20 72 64v82c-1 20 7 32 28 27v20c-31 9-61-2-59-35zM48-53c0 20 12 33 32 33 41-3 63-29 60-74-43 2-92-5-92 41" id="at"/><g id="t"><use transform="matrix(0.1055555555555555,0,0,0.1055555555555555,0,0)" xlink:href="#ar"/><use transform="matrix(0.1055555555555555,0,0,0.1055555555555555,10.55555555555555,0)" xlink:href="#as"/><use transform="matrix(0.1055555555555555,0,0,0.1055555555555555,31.66666666666665,0)" xlink:href="#at"/><use transform="matrix(0.1055555555555555,0,0,0.1055555555555555,52.77777777777775,0)" xlink:href="#ar"/></g><path fill="#fff" d="M110-160c48 1 74 30 74 79 0 53-28 85-80 85-65 0-83-55-86-122-5-90 50-162 133-122 14 7 22 21 27 39l-31 6c-5-40-67-38-82-6-9 19-15 44-15 74 11-20 30-34 60-33zm-7 138c34 0 49-23 49-58s-16-56-50-56c-29 0-50 16-49 49 1 36 15 65 50 65" id="au"/><use transform="matrix(0.1055555555555555,0,0,0.1055555555555555,0,0)" xlink:href="#au" id="u"/><g id="v"><use transform="matrix(0.1055555555555555,0,0,0.1055555555555555,0,0)" xlink:href="#ap"/><use transform="matrix(0.1055555555555555,0,0,0.1055555555555555,18.99999999999999,0)" xlink:href="#al"/><use transform="matrix(0.1055555555555555,0,0,0.1055555555555555,40.111111111111086,0)" xlink:href="#ah"/><use transform="matrix(0.1055555555555555,0,0,0.1055555555555555,61.22222222222219,0)" xlink:href="#aq"/><use transform="matrix(0.1055555555555555,0,0,0.1055555555555555,88.56111111111106,0)" xlink:href="#ag"/></g><use transform="matrix(0.1055555555555555,0,0,0.1055555555555555,0,0)" xlink:href="#at" id="w"/><path fill="#fff" d="M115-194c55 1 70 41 70 98S169 2 115 4C84 4 66-9 55-30l1 105H24l-1-265h31l2 30c10-21 28-34 59-34zm-8 174c40 0 45-34 45-75s-6-73-45-74c-42 0-51 32-51 76 0 43 10 73 51 73" id="av"/><g id="x"><use transform="matrix(0.1055555555555555,0,0,0.1055555555555555,0,0)" xlink:href="#av"/><use transform="matrix(0.1055555555555555,0,0,0.1055555555555555,21.1111111111111,0)" xlink:href="#at"/><use transform="matrix(0.1055555555555555,0,0,0.1055555555555555,42.2222222222222,0)" xlink:href="#ar"/><use transform="matrix(0.1055555555555555,0,0,0.1055555555555555,52.77777777777775,0)" xlink:href="#as"/></g><g id="y"><use transform="matrix(0.1055555555555555,0,0,0.1055555555555555,0,0)" xlink:href="#ar"/><use transform="matrix(0.1055555555555555,0,0,0.1055555555555555,10.55555555555555,0)" xlink:href="#ah"/></g><path fill="#fff" d="M205 0l-28-72H64L36 0H1l101-248h38L239 0h-34zm-38-99l-47-123c-12 45-31 82-46 123h93" id="aw"/><use transform="matrix(0.1055555555555555,0,0,0.1055555555555555,0,0)" xlink:href="#aw" id="z"/><path fill="#fff" d="M160-131c35 5 61 23 61 61C221 17 115-2 30 0v-248c76 3 177-17 177 60 0 33-19 50-47 57zm-97-11c50-1 110 9 110-42 0-47-63-36-110-37v79zm0 115c55-2 124 14 124-45 0-56-70-42-124-44v89" id="ax"/><use transform="matrix(0.08703703703703701,0,0,0.08703703703703701,0,0)" xlink:href="#ax" id="A"/><path fill="#fff" d="M103-251c84 0 111 97 45 133-19 10-37 24-39 52H78c0-63 77-55 77-114 0-30-21-42-52-43-32 0-53 17-56 46l-32-2c7-45 34-72 88-72zM77 0v-35h34V0H77" id="ay"/><use transform="matrix(0.08703703703703701,0,0,0.08703703703703701,0,0)" xlink:href="#ay" id="B"/><path fill="#7ab648" d="M24 0v-248h52V0H24" id="az"/><path fill="#7ab648" d="M135-194c87-1 58 113 63 194h-50c-7-57 23-157-34-157-59 0-34 97-39 157H25l-1-190h47c2 12-1 28 3 38 12-26 28-41 61-42" id="aA"/><path fill="#7ab648" d="M185-48c-13 30-37 53-82 52C43 2 14-33 14-96s30-98 90-98c62 0 83 45 84 108H66c0 31 8 55 39 56 18 0 30-7 34-22zm-45-69c5-46-57-63-70-21-2 6-4 13-4 21h74" id="aB"/><path fill="#7ab648" d="M135-150c-39-12-60 13-60 57V0H25l-1-190h47c2 13-1 29 3 40 6-28 27-53 61-41v41" id="aC"/><g id="C"><use transform="matrix(0.087037037037037,0,0,0.087037037037037,0,0)" xlink:href="#az"/><use transform="matrix(0.087037037037037,0,0,0.087037037037037,8.703703703703699,0)" xlink:href="#aA"/><use transform="matrix(0.087037037037037,0,0,0.087037037037037,27.7648148148148,0)" xlink:href="#aA"/><use transform="matrix(0.087037037037037,0,0,0.087037037037037,46.8259259259259,0)" xlink:href="#aB"/><use transform="matrix(0.087037037037037,0,0,0.087037037037037,64.23333333333329,0)" xlink:href="#aC"/></g><path fill="#7ab648" d="M240-174c0 40-23 61-54 70L253 0h-59l-57-94H76V0H24v-248c93 4 217-23 216 74zM76-134c48-2 112 12 112-38 0-48-66-32-112-35v73" id="aD"/><path fill="#7ab648" d="M25-224v-37h50v37H25zM25 0v-190h50V0H25" id="aE"/><path fill="#7ab648" d="M195-6C206 82 75 100 31 46c-4-6-6-13-8-21l49-6c3 16 16 24 34 25 40 0 42-37 40-79-11 22-30 35-61 35-53 0-70-43-70-97 0-56 18-96 73-97 30 0 46 14 59 34l2-30h47zm-90-29c32 0 41-27 41-63 0-35-9-62-40-62-32 0-39 29-40 63 0 36 9 62 39 62" id="aF"/><g id="D"><use transform="matrix(0.087037037037037,0,0,0.087037037037037,0,0)" xlink:href="#aD"/><use transform="matrix(0.087037037037037,0,0,0.087037037037037,22.54259259259258,0)" xlink:href="#aE"/><use transform="matrix(0.087037037037037,0,0,0.087037037037037,31.246296296296283,0)" xlink:href="#aA"/><use transform="matrix(0.087037037037037,0,0,0.087037037037037,50.30740740740738,0)" xlink:href="#aF"/></g><path fill="#7ab648" d="M182-130c37 4 62 22 62 59C244 23 116-4 24 0v-248c84 5 203-23 205 63 0 31-19 50-47 55zM76-148c40-3 101 13 101-30 0-44-60-28-101-31v61zm0 110c48-3 116 14 116-37 0-48-69-32-116-35v72" id="aG"/><path fill="#7ab648" d="M110-194c64 0 96 36 96 99 0 64-35 99-97 99-61 0-95-36-95-99 0-62 34-99 96-99zm-1 164c35 0 45-28 45-65 0-40-10-65-43-65-34 0-45 26-45 65 0 36 10 65 43 65" id="aH"/><path fill="#7ab648" d="M133-34C117-15 103 5 69 4 32 3 11-16 11-54c-1-60 55-63 116-61 1-26-3-47-28-47-18 1-26 9-28 27l-52-2c7-38 36-58 82-57s74 22 75 68l1 82c-1 14 12 18 25 15v27c-30 8-71 5-69-32zm-48 3c29 0 43-24 42-57-32 0-66-3-65 30 0 17 8 27 23 27" id="aI"/><path fill="#7ab648" d="M88-194c31-1 46 15 58 34l-1-101h50l1 261h-48c-2-10 0-23-3-31C134-8 116 4 84 4 32 4 16-41 15-95c0-56 19-97 73-99zm17 164c33 0 40-30 41-66 1-37-9-64-41-64s-38 30-39 65c0 43 13 65 39 65" id="aJ"/><path fill="#7ab648" d="M190-63c-7 42-38 67-86 67-59 0-84-38-90-98-12-110 154-137 174-36l-49 2c-2-19-15-32-35-32-30 0-35 28-38 64-6 74 65 87 74 30" id="aK"/><path fill="#7ab648" d="M137-138c1-29-70-34-71-4 15 46 118 7 119 86 1 83-164 76-172 9l43-7c4 19 20 25 44 25 33 8 57-30 24-41C81-84 22-81 20-136c-2-80 154-74 161-7" id="aL"/><path fill="#7ab648" d="M115-3C79 11 28 4 28-45v-112H4v-33h27l15-45h31v45h36v33H77v99c-1 23 16 31 38 25v30" id="aM"/><g id="E"><use transform="matrix(0.087037037037037,0,0,0.087037037037037,0,0)" xlink:href="#aG"/><use transform="matrix(0.087037037037037,0,0,0.087037037037037,22.54259259259258,0)" xlink:href="#aC"/><use transform="matrix(0.087037037037037,0,0,0.087037037037037,34.72777777777776,0)" xlink:href="#aH"/><use transform="matrix(0.087037037037037,0,0,0.087037037037037,53.78888888888886,0)" xlink:href="#aI"/><use transform="matrix(0.087037037037037,0,0,0.087037037037037,71.19629629629625,0)" xlink:href="#aJ"/><use transform="matrix(0.087037037037037,0,0,0.087037037037037,90.25740740740737,0)" xlink:href="#aK"/><use transform="matrix(0.087037037037037,0,0,0.087037037037037,107.66481481481475,0)" xlink:href="#aI"/><use transform="matrix(0.087037037037037,0,0,0.087037037037037,125.07222222222214,0)" xlink:href="#aL"/><use transform="matrix(0.087037037037037,0,0,0.087037037037037,142.47962962962953,0)" xlink:href="#aM"/></g><path fill="#7ab648" d="M140-251c81 0 123 46 123 126C263-46 219 4 140 4 59 4 17-45 17-125s42-126 123-126zm0 227c63 0 89-41 89-101s-29-99-89-99c-61 0-89 39-89 99S79-25 140-24" id="aN"/><path fill="#7ab648" d="M84 4C-5 8 30-112 23-190h32v120c0 31 7 50 39 49 72-2 45-101 50-169h31l1 190h-30c-1-10 1-25-2-33-11 22-28 36-60 37" id="aO"/><path fill="#7ab648" d="M59-47c-2 24 18 29 38 22v24C64 9 27 4 27-40v-127H5v-23h24l9-43h21v43h35v23H59v120" id="aP"/><path fill="#7ab648" d="M100-194c63 0 86 42 84 106H49c0 40 14 67 53 68 26 1 43-12 49-29l28 8c-11 28-37 45-77 45C44 4 14-33 15-96c1-61 26-98 85-98zm52 81c6-60-76-77-97-28-3 7-6 17-6 28h103" id="aQ"/><path fill="#7ab648" d="M114-163C36-179 61-72 57 0H25l-1-190h30c1 12-1 29 2 39 6-27 23-49 58-41v29" id="aR"/><g id="F"><use transform="matrix(0.08703703703703701,0,0,0.08703703703703701,0,0)" xlink:href="#aN"/><use transform="matrix(0.08703703703703701,0,0,0.08703703703703701,24.370370370370363,0)" xlink:href="#aO"/><use transform="matrix(0.08703703703703701,0,0,0.08703703703703701,41.777777777777764,0)" xlink:href="#aP"/><use transform="matrix(0.08703703703703701,0,0,0.08703703703703701,50.48148148148147,0)" xlink:href="#aQ"/><use transform="matrix(0.08703703703703701,0,0,0.08703703703703701,67.88888888888887,0)" xlink:href="#aR"/></g><path fill="#7ab648" d="M233-177c-1 41-23 64-60 70L243 0h-38l-65-103H63V0H30v-248c88 3 205-21 203 71zM63-129c60-2 137 13 137-47 0-61-80-42-137-45v92" id="aS"/><path fill="#7ab648" d="M24-231v-30h32v30H24zM24 0v-190h32V0H24" id="aT"/><path fill="#7ab648" d="M117-194c89-4 53 116 60 194h-32v-121c0-31-8-49-39-48C34-167 62-67 57 0H25l-1-190h30c1 10-1 24 2 32 11-22 29-35 61-36" id="aU"/><path fill="#7ab648" d="M177-190C167-65 218 103 67 71c-23-6-38-20-44-43l32-5c15 47 100 32 89-28v-30C133-14 115 1 83 1 29 1 15-40 15-95c0-56 16-97 71-98 29-1 48 16 59 35 1-10 0-23 2-32h30zM94-22c36 0 50-32 50-73 0-42-14-75-50-75-39 0-46 34-46 75s6 73 46 73" id="aV"/><g id="G"><use transform="matrix(0.08703703703703701,0,0,0.08703703703703701,0,0)" xlink:href="#aS"/><use transform="matrix(0.08703703703703701,0,0,0.08703703703703701,22.542592592592584,0)" xlink:href="#aT"/><use transform="matrix(0.08703703703703701,0,0,0.08703703703703701,29.41851851851851,0)" xlink:href="#aU"/><use transform="matrix(0.08703703703703701,0,0,0.08703703703703701,46.82592592592591,0)" xlink:href="#aV"/></g><path fill="#7ab648" d="M160-131c35 5 61 23 61 61C221 17 115-2 30 0v-248c76 3 177-17 177 60 0 33-19 50-47 57zm-97-11c50-1 110 9 110-42 0-47-63-36-110-37v79zm0 115c55-2 124 14 124-45 0-56-70-42-124-44v89" id="aW"/><path fill="#7ab648" d="M100-194c62-1 85 37 85 99 1 63-27 99-86 99S16-35 15-95c0-66 28-99 85-99zM99-20c44 1 53-31 53-75 0-43-8-75-51-75s-53 32-53 75 10 74 51 75" id="aX"/><path fill="#7ab648" d="M141-36C126-15 110 5 73 4 37 3 15-17 15-53c-1-64 63-63 125-63 3-35-9-54-41-54-24 1-41 7-42 31l-33-3c5-37 33-52 76-52 45 0 72 20 72 64v82c-1 20 7 32 28 27v20c-31 9-61-2-59-35zM48-53c0 20 12 33 32 33 41-3 63-29 60-74-43 2-92-5-92 41" id="aY"/><path fill="#7ab648" d="M85-194c31 0 48 13 60 33l-1-100h32l1 261h-30c-2-10 0-23-3-31C134-8 116 4 85 4 32 4 16-35 15-94c0-66 23-100 70-100zm9 24c-40 0-46 34-46 75 0 40 6 74 45 74 42 0 51-32 51-76 0-42-9-74-50-73" id="aZ"/><path fill="#7ab648" d="M96-169c-40 0-48 33-48 73s9 75 48 75c24 0 41-14 43-38l32 2c-6 37-31 61-74 61-59 0-76-41-82-99-10-93 101-131 147-64 4 7 5 14 7 22l-32 3c-4-21-16-35-41-35" id="ba"/><path fill="#7ab648" d="M135-143c-3-34-86-38-87 0 15 53 115 12 119 90S17 21 10-45l28-5c4 36 97 45 98 0-10-56-113-15-118-90-4-57 82-63 122-42 12 7 21 19 24 35" id="bb"/><g id="H"><use transform="matrix(0.08703703703703701,0,0,0.08703703703703701,0,0)" xlink:href="#aW"/><use transform="matrix(0.08703703703703701,0,0,0.08703703703703701,20.888888888888882,0)" xlink:href="#aR"/><use transform="matrix(0.08703703703703701,0,0,0.08703703703703701,31.246296296296286,0)" xlink:href="#aX"/><use transform="matrix(0.08703703703703701,0,0,0.08703703703703701,48.65370370370369,0)" xlink:href="#aY"/><use transform="matrix(0.08703703703703701,0,0,0.08703703703703701,66.06111111111109,0)" xlink:href="#aZ"/><use transform="matrix(0.08703703703703701,0,0,0.08703703703703701,83.4685185185185,0)" xlink:href="#ba"/><use transform="matrix(0.08703703703703701,0,0,0.08703703703703701,99.13518518518515,0)" xlink:href="#aY"/><use transform="matrix(0.08703703703703701,0,0,0.08703703703703701,116.54259259259256,0)" xlink:href="#bb"/><use transform="matrix(0.08703703703703701,0,0,0.08703703703703701,132.20925925925923,0)" xlink:href="#aP"/></g></defs></g></svg>