<svg xmlns="http://www.w3.org/2000/svg" xmlns:xlink="http://www.w3.org/1999/xlink" xmlns:lucid="lucid" width="980" height="1192.6"><g transform="translate(-460 -67.4)" lucid:page-tab-id="0_0"><path d="M0 0h1889.76v1889.76H0z" fill="#282c33"/><path d="M1369.12 800c0 220.9-189.94 400-424.24 400s-424.24-179.1-424.24-400 189.94-400 424.24-400 424.24 179.1 424.24 400z" stroke="#ff7070" stroke-opacity=".2" stroke-width="7" fill-opacity="0"/><path d="M1000 410c0 27.6-22.4 50-50 50s-50-22.4-50-50 22.4-50 50-50 50 22.4 50 50z" fill="#fff"/><use xlink:href="#a" transform="matrix(1,0,0,1,905,365) translate(36.2962962962963 50.37916666666666)"/><path d="M1280 510c0 27.6-22.4 50-50 50s-50-22.4-50-50 22.4-50 50-50 50 22.4 50 50z" fill="#fff"/><use xlink:href="#b" transform="matrix(1,0,0,1,1185,465) translate(36.2962962962963 50.37916666666666)"/><path d="M720 510c0 27.6-22.4 50-50 50s-50-22.4-50-50 22.4-50 50-50 50 22.4 50 50z" fill="#fff"/><use xlink:href="#c" transform="matrix(1,0,0,1,625,465) translate(36.2962962962963 50.37916666666666)"/><path d="M1420 800c0 27.6-22.4 50-50 50s-50-22.4-50-50 22.4-50 50-50 50 22.4 50 50z" fill="#fff"/><use xlink:href="#d" transform="matrix(1,0,0,1,1325,755) translate(36.2962962962963 50.37916666666666)"/><path d="M580 800c0 27.6-22.4 50-50 50s-50-22.4-50-50 22.4-50 50-50 50 22.4 50 50z" fill="#fff"/><use xlink:href="#e" transform="matrix(1,0,0,1,485,755) translate(36.2962962962963 50.37916666666666)"/><path d="M1280 1090c0 27.6-22.4 50-50 50s-50-22.4-50-50 22.4-50 50-50 50 22.4 50 50z" fill="#fff"/><use xlink:href="#f" transform="matrix(1,0,0,1,1185,1045) translate(36.2962962962963 50.37916666666666)"/><path d="M720 1090c0 27.6-22.4 50-50 50s-50-22.4-50-50 22.4-50 50-50 50 22.4 50 50z" fill="#fff"/><use xlink:href="#g" transform="matrix(1,0,0,1,625,1045) translate(36.2962962962963 50.37916666666666)"/><path d="M1000 1190c0 27.6-22.4 50-50 50s-50-22.4-50-50 22.4-50 50-50 50 22.4 50 50z" fill="#fff"/><use xlink:href="#h" transform="matrix(1,0,0,1,905,1145) translate(36.2962962962963 50.37916666666666)"/><path d="M1021.35 417.83l147.53 54.13" stroke="#0c7cba" stroke-width="4" fill="none"/><path d="M1006.08 412.23l15 .56-3.2 8.7zM1184.15 477.57l-15-.57 3.2-8.7z" stroke="#0c7cba" stroke-width="4" fill="#0c7cba"/><path d="M1006.5 455.4l303.92 303.92" stroke="#0c7cba" stroke-width="4" fill="none"/><path d="M995 443.9l13.37 6.82-6.55 6.56zM1321.92 770.82l-13.36-6.8 6.55-6.56z" stroke="#0c7cba" stroke-width="4" fill="#0c7cba"/><path d="M950 482.74v634.52" stroke="#0c7cba" stroke-width="4" fill="none"/><path d="M950 466.47l4.64 14.27h-9.28zM950 1133.53l-4.64-14.27h9.28z" stroke="#0c7cba" stroke-width="4" fill="#0c7cba"/><path d="M824.88 288c0-4.42 3.58-8 8-8h224c4.42 0 8 3.58 8 8v44c0 4.42-3.58 8-8 8h-224c-4.42 0-8-3.58-8-8z" stroke="#000" stroke-opacity="0" stroke-width="4" fill="#fff" fill-opacity="0"/><use xlink:href="#i" transform="matrix(1,0,0,1,829.8818897637539,285) translate(49.6061728395062 31.747222222222213)"/><use xlink:href="#j" transform="matrix(1,0,0,1,829.8818897637539,285) translate(138.75246913580247 31.747222222222213)"/><use xlink:href="#k" transform="matrix(1,0,0,1,829.8818897637539,285) translate(160.51728395061727 31.747222222222213)"/><path d="M1172.3 1131.8l-150.76 50.92" stroke="#7ab648" stroke-width="4" fill="none"/><path d="M1187.7 1126.58l-12.02 8.96-2.97-8.78zM1006.13 1187.93l12.03-8.96 2.97 8.78z" stroke="#7ab648" stroke-width="4" fill="#7ab648"/><path d="M1157.26 1090H742.74" stroke="#7ab648" stroke-width="4" fill="none"/><path d="M1173.53 1090l-14.27 4.64v-9.28zM726.47 1090l14.27-4.64v9.28z" stroke="#7ab648" stroke-width="4" fill="#7ab648"/><path d="M1176.1 1041.4L727.54 553.55" stroke="#7ab648" stroke-width="4" fill="none"/><path d="M1187.12 1053.37l-13.07-7.37 6.82-6.27zM716.52 541.6l13.07 7.35-6.84 6.28z" stroke="#7ab648" stroke-width="4" fill="#7ab648"/><path d="M1271.44 569.48l87.42 162.96" stroke="#ff8f80" stroke-width="4" fill="none"/><path d="M1263.75 555.15l10.83 10.38-8.17 4.38zM1366.55 746.78l-10.83-10.38 8.17-4.4z" stroke="#ff8f80" stroke-width="4" fill="#ff8f80"/><path d="M1230 582.74v434.52" stroke="#ff8f80" stroke-width="4" fill="none"/><path d="M1230 566.47l4.64 14.27h-9.28zM1230 1033.53l-4.64-14.27h9.28z" stroke="#ff8f80" stroke-width="4" fill="#ff8f80"/><path d="M1175.4 557.76l-449.2 486.7" stroke="#ff8f80" stroke-width="4" fill="none"/><path d="M1186.42 545.8l-6.27 13.64-6.8-6.3zM715.17 1056.4l6.27-13.6 6.8 6.27z" stroke="#ff8f80" stroke-width="4" fill="#ff8f80"/><path d="M1064.88 388c0-4.42 3.58-8 8-8h124c4.42 0 8 3.58 8 8v44c0 4.42-3.58 8-8 8h-124c-4.42 0-8-3.58-8-8z" stroke="#0c7cba" stroke-width="4" fill="#fff"/><use xlink:href="#l" transform="matrix(1,0,0,1,1069.8818897637539,385) translate(27.89228395061732 16.177777777777766)"/><use xlink:href="#m" transform="matrix(1,0,0,1,1069.8818897637539,385) translate(43.03086419753088 40.444444444444414)"/><path d="M1160 888c0-4.42 3.58-8 8-8h124c4.42 0 8 3.58 8 8v44c0 4.42-3.58 8-8 8h-124c-4.42 0-8-3.58-8-8z" stroke="#ff8f80" stroke-width="4" fill="#fff"/><use xlink:href="#l" transform="matrix(1,0,0,1,1165,885) translate(27.89228395061732 16.177777777777766)"/><use xlink:href="#n" transform="matrix(1,0,0,1,1165,885) translate(26.17901234567905 40.444444444444414)"/><path d="M740 628c0-4.42 3.58-8 8-8h124c4.42 0 8 3.58 8 8v44c0 4.42-3.58 8-8 8H748c-4.42 0-8-3.58-8-8z" stroke="#7ab648" stroke-width="4" fill="#fff"/><g><use xlink:href="#l" transform="matrix(1,0,0,1,745,625) translate(27.89228395061732 16.177777777777766)"/><use xlink:href="#o" transform="matrix(1,0,0,1,745,625) translate(17.75308641975313 40.444444444444414)"/></g><path d="M520.64 95.4c0-4.42 3.58-8 8-8H1372c4.42 0 8 3.58 8 8v69.2c0 4.42-3.58 8-8 8H528.64c-4.42 0-8-3.58-8-8z" stroke="#000" stroke-opacity="0" stroke-width="4" fill="#fff" fill-opacity="0"/><g><use xlink:href="#p" transform="matrix(1,0,0,1,525.6394655213553,92.4) translate(158.18796296296307 25.066666666666663)"/><use xlink:href="#q" transform="matrix(1,0,0,1,525.6394655213553,92.4) translate(307.8046296296297 25.066666666666663)"/><use xlink:href="#r" transform="matrix(1,0,0,1,525.6394655213553,92.4) translate(342.6194444444445 25.066666666666663)"/><use xlink:href="#s" transform="matrix(1,0,0,1,525.6394655213553,92.4) translate(382.48240740740744 25.066666666666663)"/><use xlink:href="#t" transform="matrix(1,0,0,1,525.6394655213553,92.4) translate(476.4824074074074 25.066666666666663)"/><use xlink:href="#u" transform="matrix(1,0,0,1,525.6394655213553,92.4) translate(509.46944444444443 25.066666666666663)"/><use xlink:href="#v" transform="matrix(1,0,0,1,525.6394655213553,92.4) translate(578.925 25.066666666666663)"/><use xlink:href="#w" transform="matrix(1,0,0,1,525.6394655213553,92.4) translate(664.0472222222222 25.066666666666663)"/><use xlink:href="#x" transform="matrix(1,0,0,1,525.6394655213553,92.4) translate(234.17129629629636 62.66666666666666)"/><use xlink:href="#y" transform="matrix(1,0,0,1,525.6394655213553,92.4) translate(260.28240740740745 62.66666666666666)"/><use xlink:href="#z" transform="matrix(1,0,0,1,525.6394655213553,92.4) translate(287.2638888888889 62.66666666666666)"/><use xlink:href="#A" transform="matrix(1,0,0,1,525.6394655213553,92.4) translate(401.9787037037037 62.66666666666666)"/><use xlink:href="#s" transform="matrix(1,0,0,1,525.6394655213553,92.4) translate(436.7935185185185 62.66666666666666)"/><use xlink:href="#t" transform="matrix(1,0,0,1,525.6394655213553,92.4) translate(530.7935185185185 62.66666666666666)"/><use xlink:href="#B" transform="matrix(1,0,0,1,525.6394655213553,92.4) translate(563.7805555555556 62.66666666666666)"/></g><defs><path fill="#5d646f" d="M101-251c68 0 85 55 85 127S166 4 100 4C33 4 14-52 14-124c0-73 17-127 87-127zm-1 229c47 0 54-49 54-102s-4-102-53-102c-51 0-55 48-55 102 0 53 5 102 54 102" id="C"/><use transform="matrix(0.08703703703703701,0,0,0.08703703703703701,0,0)" xlink:href="#C" id="a"/><path fill="#5d646f" d="M27 0v-27h64v-190l-56 39v-29l58-41h29v221h61V0H27" id="D"/><use transform="matrix(0.08703703703703701,0,0,0.08703703703703701,0,0)" xlink:href="#D" id="b"/><path fill="#5d646f" d="M64 0c3-98 48-159 88-221H18v-27h164v26C143-157 98-101 97 0H64" id="E"/><use transform="matrix(0.08703703703703701,0,0,0.08703703703703701,0,0)" xlink:href="#E" id="c"/><path fill="#5d646f" d="M101-251c82-7 93 87 43 132L82-64C71-53 59-42 53-27h129V0H18c2-99 128-94 128-182 0-28-16-43-45-43s-46 15-49 41l-32-3c6-41 34-60 81-64" id="F"/><use transform="matrix(0.08703703703703701,0,0,0.08703703703703701,0,0)" xlink:href="#F" id="d"/><path fill="#5d646f" d="M110-160c48 1 74 30 74 79 0 53-28 85-80 85-65 0-83-55-86-122-5-90 50-162 133-122 14 7 22 21 27 39l-31 6c-5-40-67-38-82-6-9 19-15 44-15 74 11-20 30-34 60-33zm-7 138c34 0 49-23 49-58s-16-56-50-56c-29 0-50 16-49 49 1 36 15 65 50 65" id="G"/><use transform="matrix(0.08703703703703701,0,0,0.08703703703703701,0,0)" xlink:href="#G" id="e"/><path fill="#5d646f" d="M126-127c33 6 58 20 58 59 0 88-139 92-164 29-3-8-5-16-6-25l32-3c6 27 21 44 54 44 32 0 52-15 52-46 0-38-36-46-79-43v-28c39 1 72-4 72-42 0-27-17-43-46-43-28 0-47 15-49 41l-32-3c6-42 35-63 81-64 48-1 79 21 79 65 0 36-21 52-52 59" id="H"/><use transform="matrix(0.08703703703703701,0,0,0.08703703703703701,0,0)" xlink:href="#H" id="f"/><path fill="#5d646f" d="M54-142c48-35 137-8 131 61C196 18 31 33 14-55l32-4c7 23 22 37 52 37 35-1 51-22 54-58 4-55-73-65-99-34H22l8-134h141v27H59" id="I"/><use transform="matrix(0.08703703703703701,0,0,0.08703703703703701,0,0)" xlink:href="#I" id="g"/><path fill="#5d646f" d="M155-56V0h-30v-56H8v-25l114-167h33v167h35v25h-35zm-30-156c-27 46-58 90-88 131h88v-131" id="J"/><use transform="matrix(0.08703703703703701,0,0,0.08703703703703701,0,0)" xlink:href="#J" id="h"/><path fill="#5d646f" d="M240-174c0 40-23 61-54 70L253 0h-59l-57-94H76V0H24v-248c93 4 217-23 216 74zM76-134c48-2 112 12 112-38 0-48-66-32-112-35v73" id="K"/><path fill="#5d646f" d="M25-224v-37h50v37H25zM25 0v-190h50V0H25" id="L"/><path fill="#5d646f" d="M135-194c87-1 58 113 63 194h-50c-7-57 23-157-34-157-59 0-34 97-39 157H25l-1-190h47c2 12-1 28 3 38 12-26 28-41 61-42" id="M"/><path fill="#5d646f" d="M195-6C206 82 75 100 31 46c-4-6-6-13-8-21l49-6c3 16 16 24 34 25 40 0 42-37 40-79-11 22-30 35-61 35-53 0-70-43-70-97 0-56 18-96 73-97 30 0 46 14 59 34l2-30h47zm-90-29c32 0 41-27 41-63 0-35-9-62-40-62-32 0-39 29-40 63 0 36 9 62 39 62" id="N"/><g id="i"><use transform="matrix(0.09938271604938267,0,0,0.09938271604938267,0,0)" xlink:href="#K"/><use transform="matrix(0.09938271604938267,0,0,0.09938271604938267,25.740123456790112,0)" xlink:href="#L"/><use transform="matrix(0.09938271604938267,0,0,0.09938271604938267,35.67839506172838,0)" xlink:href="#M"/><use transform="matrix(0.09938271604938267,0,0,0.09938271604938267,57.443209876543186,0)" xlink:href="#N"/></g><path fill="#5d646f" d="M14-72v-43h91v43H14" id="O"/><use transform="matrix(0.09938271604938267,0,0,0.09938271604938267,0,0)" xlink:href="#O" id="j"/><path fill="#5d646f" d="M23 0v-37h61v-169l-59 37v-38l62-41h46v211h57V0H23" id="P"/><use transform="matrix(0.09938271604938267,0,0,0.09938271604938267,0,0)" xlink:href="#P" id="k"/><path fill="#5d646f" d="M100-194c63 0 86 42 84 106H49c0 40 14 67 53 68 26 1 43-12 49-29l28 8c-11 28-37 45-77 45C44 4 14-33 15-96c1-61 26-98 85-98zm52 81c6-60-76-77-97-28-3 7-6 17-6 28h103" id="Q"/><path fill="#5d646f" d="M141 0L90-78 38 0H4l68-98-65-92h35l48 74 47-74h35l-64 92 68 98h-35" id="R"/><path fill="#5d646f" d="M96-169c-40 0-48 33-48 73s9 75 48 75c24 0 41-14 43-38l32 2c-6 37-31 61-74 61-59 0-76-41-82-99-10-93 101-131 147-64 4 7 5 14 7 22l-32 3c-4-21-16-35-41-35" id="S"/><path fill="#5d646f" d="M24 0v-261h32V0H24" id="T"/><path fill="#5d646f" d="M84 4C-5 8 30-112 23-190h32v120c0 31 7 50 39 49 72-2 45-101 50-169h31l1 190h-30c-1-10 1-25-2-33-11 22-28 36-60 37" id="U"/><path fill="#5d646f" d="M85-194c31 0 48 13 60 33l-1-100h32l1 261h-30c-2-10 0-23-3-31C134-8 116 4 85 4 32 4 16-35 15-94c0-66 23-100 70-100zm9 24c-40 0-46 34-46 75 0 40 6 74 45 74 42 0 51-32 51-76 0-42-9-74-50-73" id="V"/><path fill="#5d646f" d="M33-154v-36h34v36H33zM33 0v-36h34V0H33" id="W"/><g id="l"><use transform="matrix(0.0561728395061728,0,0,0.0561728395061728,0,0)" xlink:href="#Q"/><use transform="matrix(0.0561728395061728,0,0,0.0561728395061728,11.23456790123456,0)" xlink:href="#R"/><use transform="matrix(0.0561728395061728,0,0,0.0561728395061728,21.345679012345663,0)" xlink:href="#S"/><use transform="matrix(0.0561728395061728,0,0,0.0561728395061728,31.45679012345677,0)" xlink:href="#T"/><use transform="matrix(0.0561728395061728,0,0,0.0561728395061728,35.89444444444442,0)" xlink:href="#U"/><use transform="matrix(0.0561728395061728,0,0,0.0561728395061728,47.12901234567897,0)" xlink:href="#V"/><use transform="matrix(0.0561728395061728,0,0,0.0561728395061728,58.36358024691353,0)" xlink:href="#Q"/><use transform="matrix(0.0561728395061728,0,0,0.0561728395061728,69.59814814814808,0)" xlink:href="#W"/></g><path fill="#5d646f" d="M101-251c68 0 84 54 84 127C185-50 166 4 99 4S15-52 14-124c-1-75 17-127 87-127zm-1 216c37-5 36-46 36-89s4-89-36-89c-39 0-36 45-36 89 0 43-3 85 36 89" id="X"/><path fill="#5d646f" d="M76-54c-1 42 2 86-19 110H24C36 42 46 24 48 0H25v-54h51" id="Y"/><path fill="#5d646f" d="M182-182c0 78-84 86-111 141h115V0H12c-6-101 99-100 120-180 1-22-12-31-33-32-23 0-32 14-35 34l-49-3c5-45 32-70 84-70 51 0 83 22 83 69" id="Z"/><path fill="#5d646f" d="M165-50V0h-47v-50H5v-38l105-160h55v161h33v37h-33zm-47-37l2-116L46-87h72" id="aa"/><g id="m"><use transform="matrix(0.0561728395061728,0,0,0.0561728395061728,0,0)" xlink:href="#X"/><use transform="matrix(0.0561728395061728,0,0,0.0561728395061728,11.23456790123456,0)" xlink:href="#Y"/><use transform="matrix(0.0561728395061728,0,0,0.0561728395061728,16.85185185185184,0)" xlink:href="#Z"/><use transform="matrix(0.0561728395061728,0,0,0.0561728395061728,28.0864197530864,0)" xlink:href="#Y"/><use transform="matrix(0.0561728395061728,0,0,0.0561728395061728,33.70370370370368,0)" xlink:href="#aa"/></g><path fill="#5d646f" d="M68-38c1 34 0 65-14 84H32c9-13 17-26 17-46H33v-38h35" id="ab"/><path fill="#5d646f" d="M139-81c0-46-55-55-73-27H18l9-140h149v37H72l-4 63c44-38 133-4 122 66C201 21 21 35 11-62l49-4c5 18 15 30 39 30 26 0 40-18 40-45" id="ac"/><g id="n"><use transform="matrix(0.0561728395061728,0,0,0.0561728395061728,0,0)" xlink:href="#C"/><use transform="matrix(0.0561728395061728,0,0,0.0561728395061728,11.23456790123456,0)" xlink:href="#ab"/><use transform="matrix(0.0561728395061728,0,0,0.0561728395061728,16.85185185185184,0)" xlink:href="#F"/><use transform="matrix(0.0561728395061728,0,0,0.0561728395061728,28.0864197530864,0)" xlink:href="#ab"/><use transform="matrix(0.0561728395061728,0,0,0.0561728395061728,33.70370370370368,0)" xlink:href="#J"/><use transform="matrix(0.0561728395061728,0,0,0.0561728395061728,44.93827160493824,0)" xlink:href="#ab"/><use transform="matrix(0.0561728395061728,0,0,0.0561728395061728,50.555555555555515,0)" xlink:href="#P"/><use transform="matrix(0.0561728395061728,0,0,0.0561728395061728,61.79012345679007,0)" xlink:href="#Y"/><use transform="matrix(0.0561728395061728,0,0,0.0561728395061728,67.40740740740735,0)" xlink:href="#ac"/></g><path fill="#5d646f" d="M128-127c34 4 56 21 59 58 7 91-148 94-172 28-4-9-6-17-7-26l51-5c1 24 16 35 40 36 23 0 39-12 38-36-1-31-31-36-65-34v-40c32 2 59-3 59-33 0-20-13-33-34-33s-33 13-35 32l-50-3c6-44 37-68 86-68 50 0 83 20 83 66 0 35-22 52-53 58" id="ad"/><g id="o"><use transform="matrix(0.0561728395061728,0,0,0.0561728395061728,0,0)" xlink:href="#C"/><use transform="matrix(0.0561728395061728,0,0,0.0561728395061728,11.23456790123456,0)" xlink:href="#ab"/><use transform="matrix(0.0561728395061728,0,0,0.0561728395061728,16.85185185185184,0)" xlink:href="#F"/><use transform="matrix(0.0561728395061728,0,0,0.0561728395061728,28.0864197530864,0)" xlink:href="#ab"/><use transform="matrix(0.0561728395061728,0,0,0.0561728395061728,33.70370370370368,0)" xlink:href="#J"/><use transform="matrix(0.0561728395061728,0,0,0.0561728395061728,44.93827160493824,0)" xlink:href="#ab"/><use transform="matrix(0.0561728395061728,0,0,0.0561728395061728,50.555555555555515,0)" xlink:href="#D"/><use transform="matrix(0.0561728395061728,0,0,0.0561728395061728,61.79012345679007,0)" xlink:href="#ab"/><use transform="matrix(0.0561728395061728,0,0,0.0561728395061728,67.40740740740735,0)" xlink:href="#I"/><use transform="matrix(0.0561728395061728,0,0,0.0561728395061728,78.6419753086419,0)" xlink:href="#ab"/><use transform="matrix(0.0561728395061728,0,0,0.0561728395061728,84.25925925925918,0)" xlink:href="#ad"/></g><path fill="#fff" d="M160-131c35 5 61 23 61 61C221 17 115-2 30 0v-248c76 3 177-17 177 60 0 33-19 50-47 57zm-97-11c50-1 110 9 110-42 0-47-63-36-110-37v79zm0 115c55-2 124 14 124-45 0-56-70-42-124-44v89" id="ae"/><path fill="#fff" d="M114-163C36-179 61-72 57 0H25l-1-190h30c1 12-1 29 2 39 6-27 23-49 58-41v29" id="af"/><path fill="#fff" d="M100-194c62-1 85 37 85 99 1 63-27 99-86 99S16-35 15-95c0-66 28-99 85-99zM99-20c44 1 53-31 53-75 0-43-8-75-51-75s-53 32-53 75 10 74 51 75" id="ag"/><path fill="#fff" d="M141-36C126-15 110 5 73 4 37 3 15-17 15-53c-1-64 63-63 125-63 3-35-9-54-41-54-24 1-41 7-42 31l-33-3c5-37 33-52 76-52 45 0 72 20 72 64v82c-1 20 7 32 28 27v20c-31 9-61-2-59-35zM48-53c0 20 12 33 32 33 41-3 63-29 60-74-43 2-92-5-92 41" id="ah"/><path fill="#fff" d="M85-194c31 0 48 13 60 33l-1-100h32l1 261h-30c-2-10 0-23-3-31C134-8 116 4 85 4 32 4 16-35 15-94c0-66 23-100 70-100zm9 24c-40 0-46 34-46 75 0 40 6 74 45 74 42 0 51-32 51-76 0-42-9-74-50-73" id="ai"/><path fill="#fff" d="M96-169c-40 0-48 33-48 73s9 75 48 75c24 0 41-14 43-38l32 2c-6 37-31 61-74 61-59 0-76-41-82-99-10-93 101-131 147-64 4 7 5 14 7 22l-32 3c-4-21-16-35-41-35" id="aj"/><path fill="#fff" d="M135-143c-3-34-86-38-87 0 15 53 115 12 119 90S17 21 10-45l28-5c4 36 97 45 98 0-10-56-113-15-118-90-4-57 82-63 122-42 12 7 21 19 24 35" id="ak"/><path fill="#fff" d="M59-47c-2 24 18 29 38 22v24C64 9 27 4 27-40v-127H5v-23h24l9-43h21v43h35v23H59v120" id="al"/><g id="p"><use transform="matrix(0.08703703703703701,0,0,0.08703703703703701,0,0)" xlink:href="#ae"/><use transform="matrix(0.08703703703703701,0,0,0.08703703703703701,20.888888888888882,0)" xlink:href="#af"/><use transform="matrix(0.08703703703703701,0,0,0.08703703703703701,31.246296296296286,0)" xlink:href="#ag"/><use transform="matrix(0.08703703703703701,0,0,0.08703703703703701,48.65370370370369,0)" xlink:href="#ah"/><use transform="matrix(0.08703703703703701,0,0,0.08703703703703701,66.06111111111109,0)" xlink:href="#ai"/><use transform="matrix(0.08703703703703701,0,0,0.08703703703703701,83.4685185185185,0)" xlink:href="#aj"/><use transform="matrix(0.08703703703703701,0,0,0.08703703703703701,99.13518518518515,0)" xlink:href="#ah"/><use transform="matrix(0.08703703703703701,0,0,0.08703703703703701,116.54259259259256,0)" xlink:href="#ak"/><use transform="matrix(0.08703703703703701,0,0,0.08703703703703701,132.20925925925923,0)" xlink:href="#al"/></g><g id="q"><use transform="matrix(0.08703703703703701,0,0,0.08703703703703701,0,0)" xlink:href="#al"/><use transform="matrix(0.08703703703703701,0,0,0.08703703703703701,8.7037037037037,0)" xlink:href="#ag"/></g><path fill="#fff" d="M24 0v-261h32V0H24" id="am"/><g id="r"><use transform="matrix(0.08703703703703701,0,0,0.08703703703703701,0,0)" xlink:href="#ah"/><use transform="matrix(0.08703703703703701,0,0,0.08703703703703701,17.4074074074074,0)" xlink:href="#am"/><use transform="matrix(0.08703703703703701,0,0,0.08703703703703701,24.283333333333324,0)" xlink:href="#am"/></g><path fill="#fff" d="M117-194c89-4 53 116 60 194h-32v-121c0-31-8-49-39-48C34-167 62-67 57 0H25l-1-190h30c1 10-1 24 2 32 11-22 29-35 61-36" id="an"/><path fill="#fff" d="M100-194c63 0 86 42 84 106H49c0 40 14 67 53 68 26 1 43-12 49-29l28 8c-11 28-37 45-77 45C44 4 14-33 15-96c1-61 26-98 85-98zm52 81c6-60-76-77-97-28-3 7-6 17-6 28h103" id="ao"/><g id="s"><use transform="matrix(0.08703703703703701,0,0,0.08703703703703701,0,0)" xlink:href="#an"/><use transform="matrix(0.08703703703703701,0,0,0.08703703703703701,17.4074074074074,0)" xlink:href="#ag"/><use transform="matrix(0.08703703703703701,0,0,0.08703703703703701,34.8148148148148,0)" xlink:href="#ai"/><use transform="matrix(0.08703703703703701,0,0,0.08703703703703701,52.22222222222219,0)" xlink:href="#ao"/><use transform="matrix(0.08703703703703701,0,0,0.08703703703703701,69.6296296296296,0)" xlink:href="#ak"/></g><path fill="#fff" d="M24-231v-30h32v30H24zM24 0v-190h32V0H24" id="ap"/><g id="t"><use transform="matrix(0.08703703703703701,0,0,0.08703703703703701,0,0)" xlink:href="#ap"/><use transform="matrix(0.08703703703703701,0,0,0.08703703703703701,6.875925925925924,0)" xlink:href="#an"/></g><path fill="#fff" d="M177-190C167-65 218 103 67 71c-23-6-38-20-44-43l32-5c15 47 100 32 89-28v-30C133-14 115 1 83 1 29 1 15-40 15-95c0-56 16-97 71-98 29-1 48 16 59 35 1-10 0-23 2-32h30zM94-22c36 0 50-32 50-73 0-42-14-75-50-75-39 0-46 34-46 75s6 73 46 73" id="aq"/><path fill="#fff" d="M33-154v-36h34v36H33zM33 0v-36h34V0H33" id="ar"/><g id="u"><use transform="matrix(0.08703703703703701,0,0,0.08703703703703701,0,0)" xlink:href="#af"/><use transform="matrix(0.08703703703703701,0,0,0.08703703703703701,10.357407407407404,0)" xlink:href="#ap"/><use transform="matrix(0.08703703703703701,0,0,0.08703703703703701,17.233333333333327,0)" xlink:href="#an"/><use transform="matrix(0.08703703703703701,0,0,0.08703703703703701,34.640740740740725,0)" xlink:href="#aq"/><use transform="matrix(0.08703703703703701,0,0,0.08703703703703701,52.04814814814813,0)" xlink:href="#ar"/></g><path fill="#fff" d="M140-251c81 0 123 46 123 126C263-46 219 4 140 4 59 4 17-45 17-125s42-126 123-126zm0 227c63 0 89-41 89-101s-29-99-89-99c-61 0-89 39-89 99S79-25 140-24" id="as"/><path fill="#fff" d="M87 75C49 33 22-17 22-94c0-76 28-126 65-167h31c-38 41-64 92-64 168S80 34 118 75H87" id="at"/><g id="v"><use transform="matrix(0.08703703703703701,0,0,0.08703703703703701,0,0)" xlink:href="#as"/><use transform="matrix(0.08703703703703701,0,0,0.08703703703703701,24.370370370370363,0)" xlink:href="#at"/><use transform="matrix(0.08703703703703701,0,0,0.08703703703703701,34.72777777777777,0)" xlink:href="#am"/><use transform="matrix(0.08703703703703701,0,0,0.08703703703703701,41.603703703703694,0)" xlink:href="#ag"/><use transform="matrix(0.08703703703703701,0,0,0.08703703703703701,59.01111111111109,0)" xlink:href="#aq"/></g><path fill="#fff" d="M33-261c38 41 65 92 65 168S71 34 33 75H2C39 34 66-17 66-93S39-220 2-261h31" id="au"/><g id="w"><use transform="matrix(0.08703703703703701,0,0,0.08703703703703701,0,0)" xlink:href="#an"/><use transform="matrix(0.08703703703703701,0,0,0.08703703703703701,17.4074074074074,0)" xlink:href="#au"/></g><use transform="matrix(0.08703703703703701,0,0,0.08703703703703701,0,0)" xlink:href="#an" id="x"/><path fill="#fff" d="M18-150v-26h174v26H18zm0 90v-26h174v26H18" id="av"/><use transform="matrix(0.08703703703703701,0,0,0.08703703703703701,0,0)" xlink:href="#av" id="y"/><path fill="#fff" d="M84 4C-5 8 30-112 23-190h32v120c0 31 7 50 39 49 72-2 45-101 50-169h31l1 190h-30c-1-10 1-25-2-33-11 22-28 36-60 37" id="aw"/><path fill="#fff" d="M210-169c-67 3-38 105-44 169h-31v-121c0-29-5-50-35-48C34-165 62-65 56 0H25l-1-190h30c1 10-1 24 2 32 10-44 99-50 107 0 11-21 27-35 58-36 85-2 47 119 55 194h-31v-121c0-29-5-49-35-48" id="ax"/><path fill="#fff" d="M115-194c53 0 69 39 70 98 0 66-23 100-70 100C84 3 66-7 56-30L54 0H23l1-261h32v101c10-23 28-34 59-34zm-8 174c40 0 45-34 45-75 0-40-5-75-45-74-42 0-51 32-51 76 0 43 10 73 51 73" id="ay"/><g id="z"><use transform="matrix(0.08703703703703701,0,0,0.08703703703703701,0,0)" xlink:href="#an"/><use transform="matrix(0.08703703703703701,0,0,0.08703703703703701,17.4074074074074,0)" xlink:href="#aw"/><use transform="matrix(0.08703703703703701,0,0,0.08703703703703701,34.8148148148148,0)" xlink:href="#ax"/><use transform="matrix(0.08703703703703701,0,0,0.08703703703703701,60.83888888888887,0)" xlink:href="#ay"/><use transform="matrix(0.08703703703703701,0,0,0.08703703703703701,78.24629629629626,0)" xlink:href="#ao"/><use transform="matrix(0.08703703703703701,0,0,0.08703703703703701,95.65370370370367,0)" xlink:href="#af"/></g><path fill="#fff" d="M101-234c-31-9-42 10-38 44h38v23H63V0H32v-167H5v-23h27c-7-52 17-82 69-68v24" id="az"/><g id="A"><use transform="matrix(0.08703703703703701,0,0,0.08703703703703701,0,0)" xlink:href="#ag"/><use transform="matrix(0.08703703703703701,0,0,0.08703703703703701,17.4074074074074,0)" xlink:href="#az"/></g><g id="B"><use transform="matrix(0.08703703703703701,0,0,0.08703703703703701,0,0)" xlink:href="#af"/><use transform="matrix(0.08703703703703701,0,0,0.08703703703703701,10.357407407407404,0)" xlink:href="#ap"/><use transform="matrix(0.08703703703703701,0,0,0.08703703703703701,17.233333333333327,0)" xlink:href="#an"/><use transform="matrix(0.08703703703703701,0,0,0.08703703703703701,34.640740740740725,0)" xlink:href="#aq"/></g></defs></g></svg>